<svg width="1269" height="317" viewBox="0 0 1269 317" fill="none" xmlns="http://www.w3.org/2000/svg">
<g clip-path="url(#clip0_201_1029)">
<path fill-rule="evenodd" clip-rule="evenodd" d="M241.412 111.252C245.528 116.799 248.814 122.839 251.23 129.302C278.297 134.318 298.247 158.015 298.247 185.952C298.247 217.728 272.396 243.572 240.627 243.572C227.771 243.572 215.268 239.248 205.166 231.354L198.049 231.4L158.31 231.315C148.2 239.233 135.682 243.572 122.802 243.572C91.0265 243.572 65.1826 217.72 65.1826 185.952C65.1826 157.992 85.1561 134.295 112.239 129.309C114.909 122.231 118.686 115.514 123.38 109.536C120.987 105.789 119.671 101.396 119.671 96.887C119.671 83.9535 130.196 73.4359 143.122 73.4359C150.985 73.4359 158.202 77.3829 162.503 83.6842C168.751 82.007 175.198 81.1606 181.73 81.1606C189.04 81.1606 196.21 82.207 203.119 84.2921C207.367 77.683 214.807 73.4282 222.893 73.4282C235.826 73.4282 246.344 83.9535 246.344 96.8793C246.344 102.119 244.567 107.182 241.412 111.252ZM211.321 220.49C219.5 227.438 229.902 231.262 240.627 231.262L240.643 231.285C265.625 231.285 285.952 210.957 285.952 185.975C285.952 162.963 268.749 143.612 245.936 140.966C243.528 140.681 241.505 139.011 240.774 136.703C238.219 128.632 234.103 121.277 228.525 114.845C227.402 113.552 226.863 111.844 227.055 110.136C227.248 108.428 228.14 106.874 229.517 105.858C232.395 103.735 234.049 100.465 234.049 96.8947C234.049 90.7473 229.048 85.7539 222.908 85.7539C218.03 85.7539 213.645 89.0161 212.244 93.6864C211.752 95.3329 210.59 96.6947 209.052 97.4487C207.505 98.2027 205.72 98.2796 204.12 97.6564C202.027 96.8438 199.9 96.1491 197.745 95.573L197.303 97.2787C197.288 97.271 197.257 97.2633 197.257 97.2633L187.693 133.871C187.408 134.971 186.478 135.725 185.423 135.71C183.354 135.679 179.961 135.679 177.883 135.718C176.822 135.733 175.891 134.979 175.606 133.871L173.105 124.215V124.2L173.113 124.215L165.688 95.5903C164.259 95.9733 162.843 96.4082 161.441 96.8947C158.248 98.0027 154.763 96.3254 153.624 93.1478C152.039 88.7238 147.823 85.7539 143.13 85.7539C136.982 85.7539 131.989 90.755 131.989 96.8947C131.989 100.034 133.266 102.934 135.574 105.073C138.06 107.366 138.229 111.236 135.951 113.737C129.966 120.315 125.395 128.248 122.726 136.688C122.702 136.765 122.679 136.842 122.649 136.919C121.848 139.119 119.879 140.689 117.555 140.958C94.7196 143.582 77.4929 162.932 77.4929 185.96C77.4929 210.942 97.8203 231.269 122.802 231.269C133.536 231.269 143.953 227.43 152.132 220.475C153.24 219.528 154.655 219.005 156.117 219.005H156.133L198.018 219.09L207.297 219.028H207.336C208.798 219.028 210.206 219.544 211.321 220.49ZM178.261 162.947C180.231 164.694 183.2 164.694 185.17 162.947L190.717 158.038C194.311 154.861 192.056 148.929 187.263 148.929H176.168C171.375 148.929 169.121 154.861 172.714 158.038L178.261 162.947ZM197.718 140.604C197.718 135.311 200.888 131.018 204.797 131.018C208.705 131.018 211.875 135.311 211.875 140.604C211.875 145.898 208.705 150.191 204.797 150.191C200.888 150.191 197.718 145.898 197.718 140.604ZM158.632 150.199C162.54 150.199 165.71 145.905 165.71 140.612C165.71 135.319 162.54 131.025 158.632 131.025C154.723 131.025 151.554 135.319 151.554 140.612C151.554 145.905 154.723 150.199 158.632 150.199ZM200.019 163.332C202.473 160.985 206.366 161.062 208.721 163.516H208.713C211.06 165.971 210.983 169.864 208.528 172.218C206.335 174.319 204.92 178.489 204.92 182.836C204.92 187.968 206.72 191.622 208.397 193.323C210.79 195.739 210.759 199.639 208.344 202.025C207.143 203.209 205.605 203.802 204.02 203.802C202.435 203.802 200.842 203.194 199.642 201.971C196.395 198.678 194.156 194.084 193.179 188.876C189.109 189.737 184.946 190.176 180.792 190.176C177.237 190.176 173.682 189.853 170.182 189.222C169.174 194.285 166.966 198.747 163.788 201.971C162.588 203.194 160.972 203.802 159.41 203.802C157.848 203.802 156.286 203.209 155.086 202.025C152.663 199.639 152.639 195.739 155.025 193.323C156.71 191.622 158.502 187.968 158.502 182.836C158.502 178.489 157.087 174.319 154.894 172.218C152.439 169.864 152.355 165.971 154.709 163.516C157.063 161.062 160.957 160.977 163.411 163.332C166.781 166.571 169.158 171.318 170.205 176.665C177.545 178.343 185.277 178.25 192.563 176.381L193.317 176.188C194.41 171.041 196.741 166.471 200.019 163.332Z" fill="black"/>
</g>
<path d="M377.142 231V86.3248H439.59C471.732 86.3248 493.278 106.67 493.278 137.47C493.278 168.623 471.167 188.05 438.177 188.05H416.419V231H377.142ZM416.419 157.532H430.265C444.04 157.532 452.305 149.832 452.305 137.47C452.305 125.037 444.04 117.69 430.265 117.69H416.419V157.532ZM507.689 231V86.3248H546.966V199.352H605.458V231H507.689ZM658.916 231H616.531L664.285 86.3248H717.973L765.727 231H723.342L715.006 203.308H667.252L658.916 231ZM676.153 173.921H706.105L691.694 126.167H690.564L676.153 173.921ZM779.661 231V86.3248H818.938V144.817H820.916L864.432 86.3248H910.208L861.324 150.75L911.338 231H864.432L831.937 176.747L818.938 193.701V231H779.661ZM959.446 231H917.06L964.814 86.3248H1018.5L1066.26 231H1023.87L1015.54 203.308H967.781L959.446 231ZM976.682 173.921H1006.63L992.224 126.167H991.093L976.682 173.921ZM1080.19 231V86.3248H1142.64C1174.78 86.3248 1196.33 104.692 1196.33 135.492C1196.33 155.554 1187.14 169.612 1171.74 177.029L1201.13 231H1158.46L1133.03 183.246H1119.47V231H1080.19ZM1119.47 152.728H1133.31C1147.09 152.728 1155.35 147.854 1155.35 135.492C1155.35 123.059 1147.09 117.69 1133.31 117.69H1119.47V152.728Z" fill="black"/>
<defs>
<clipPath id="clip0_201_1029">
<rect width="233.065" height="170.144" fill="white" transform="translate(65.1826 73.4282)"/>
</clipPath>
</defs>
</svg>
