<svg width="569" height="319" viewBox="0 0 569 319" fill="none" xmlns="http://www.w3.org/2000/svg">
<mask id="path-1-inside-1_1063_40182" fill="white">
<path d="M0 8C0 3.58172 3.58172 0 8 0H561C565.418 0 569 3.58172 569 8V311C569 315.418 565.418 319 561 319H8.00002C3.58174 319 0 315.418 0 311V8Z"/>
</mask>
<path d="M-1 8C-1 3.02944 3.02944 -1 8 -1H560C564.971 -1 569 3.02944 569 8C569 4.13401 565.418 1 561 1H8C4.13401 1 1 4.13401 1 8H-1ZM569 311C569 315.971 564.971 320 560 320H8C3.02944 320 -1 315.971 -1 311H1C1 314.866 4.13401 318 8 318H561C565.418 318 569 314.866 569 311ZM8 320C3.02944 320 -1 315.971 -1 311V8C-1 3.02944 3.02944 -1 8 -1V1C4.13401 1 1 4.13401 1 8V311C1 314.866 4.13401 318 8 318V320ZM569 0V319V0Z" fill="#34363C" mask="url(#path-1-inside-1_1063_40182)"/>
<rect width="64.9758" height="64.9758" rx="1.6244" transform="matrix(0.866025 0.5 -0.866025 0.5 281.844 177.789)" fill="url(#paint0_linear_1063_40182)" stroke="#22212C" stroke-width="1.6244"/>
<rect width="64.9758" height="48.7319" rx="1.6244" transform="matrix(0.866025 0.5 0 1 225.572 210.277)" fill="url(#paint1_linear_1063_40182)" stroke="#22212C" stroke-width="1.6244"/>
<rect width="64.9758" height="48.7319" rx="1.6244" transform="matrix(0.866025 -0.5 0 1 281.844 242.77)" fill="url(#paint2_linear_1063_40182)" stroke="#22212C" stroke-width="1.6244"/>
<path d="M292.589 264.945V255.199L293.891 254.447V258.498L294.084 258.387L297.232 252.518L298.932 251.537L295.121 258.54L299.064 261.206L297.316 262.216L294.084 259.946L293.891 260.058V264.193L292.589 264.945ZM299.838 260.76V251.013L301.08 250.296V260.043L299.838 260.76ZM305.467 257.705C304.873 258.048 304.342 258.215 303.876 258.206C303.418 258.183 303.056 257.983 302.791 257.607C302.525 257.231 302.393 256.681 302.393 255.957V255.748C302.393 255.024 302.525 254.326 302.791 253.653C303.056 252.971 303.418 252.353 303.876 251.801C304.342 251.244 304.873 250.794 305.467 250.451C306.062 250.107 306.593 249.945 307.059 249.963C307.525 249.982 307.891 250.179 308.156 250.555C308.422 250.922 308.554 251.467 308.554 252.191V252.4C308.554 253.124 308.422 253.827 308.156 254.509C307.891 255.191 307.525 255.811 307.059 256.368C306.593 256.916 306.062 257.361 305.467 257.705ZM305.467 256.424C306.014 256.108 306.456 255.653 306.794 255.059C307.139 254.451 307.312 253.79 307.312 253.075V252.95C307.312 252.235 307.144 251.776 306.806 251.571C306.468 251.358 306.022 251.411 305.467 251.731C304.929 252.042 304.487 252.502 304.141 253.11C303.803 253.704 303.635 254.358 303.635 255.073V255.198C303.635 255.913 303.803 256.377 304.141 256.591C304.487 256.79 304.929 256.735 305.467 256.424ZM312.295 253.763C311.539 254.199 310.912 254.366 310.414 254.264C309.916 254.162 309.61 253.749 309.498 253.025L310.655 252.036C310.72 252.38 310.828 252.619 310.981 252.753C311.134 252.888 311.322 252.937 311.548 252.899C311.781 252.858 312.03 252.76 312.295 252.607C312.689 252.38 312.99 252.117 313.199 251.82C313.417 251.519 313.525 251.229 313.525 250.95C313.525 250.672 313.425 250.525 313.224 250.512C313.023 250.498 312.725 250.563 312.331 250.706L311.921 250.86C311.519 251.008 311.154 251.099 310.824 251.131C310.494 251.164 310.233 251.096 310.04 250.929C309.847 250.762 309.751 250.46 309.751 250.024C309.751 249.374 309.96 248.753 310.378 248.158C310.796 247.555 311.351 247.054 312.042 246.655C312.709 246.27 313.256 246.13 313.682 246.237C314.116 246.33 314.397 246.636 314.526 247.156L313.368 248.2C313.296 247.824 313.143 247.62 312.91 247.588C312.677 247.546 312.388 247.625 312.042 247.824C311.704 248.019 311.439 248.247 311.246 248.507C311.053 248.757 310.957 249.012 310.957 249.272C310.957 249.551 311.049 249.702 311.234 249.725C311.427 249.743 311.684 249.692 312.006 249.572L312.428 249.412C312.854 249.249 313.244 249.14 313.597 249.084C313.951 249.029 314.228 249.082 314.429 249.245C314.638 249.402 314.743 249.713 314.743 250.177C314.743 250.864 314.522 251.526 314.08 252.161C313.638 252.797 313.043 253.331 312.295 253.763ZM318.679 250.077C318.076 250.425 317.549 250.585 317.099 250.558C316.649 250.52 316.295 250.312 316.038 249.931C315.789 249.536 315.664 248.987 315.664 248.281V248.114C315.664 247.399 315.789 246.705 316.038 246.032C316.287 245.35 316.633 244.738 317.075 244.195C317.525 243.638 318.043 243.19 318.63 242.851C319.201 242.521 319.699 242.382 320.125 242.433C320.56 242.47 320.897 242.679 321.138 243.06C321.38 243.44 321.5 243.979 321.5 244.675V245.218L316.93 247.856C316.946 248.45 317.119 248.833 317.449 249.005C317.786 249.163 318.204 249.098 318.703 248.81C319.169 248.541 319.519 248.218 319.752 247.842C319.993 247.462 320.178 247.077 320.306 246.687L321.331 246.708C321.219 247.033 321.054 247.402 320.837 247.815C320.628 248.223 320.351 248.625 320.005 249.019C319.659 249.414 319.217 249.766 318.679 250.077ZM316.942 246.749L320.234 244.849C320.202 244.348 320.041 244.037 319.752 243.916C319.462 243.786 319.084 243.856 318.618 244.125C318.152 244.394 317.77 244.763 317.473 245.232C317.183 245.687 317.006 246.193 316.942 246.749ZM324.761 246.371C324.399 246.579 324.11 246.621 323.893 246.496C323.684 246.366 323.579 246.092 323.579 245.674V241.4L321.939 242.347V241.135L323.579 240.189V237.919L324.821 237.202V239.472L326.594 238.448V239.659L324.821 240.683V244.707C324.821 244.985 324.934 245.059 325.159 244.93L326.401 244.212V245.424L324.761 246.371Z" fill="white"/>
<rect width="64.9758" height="64.9758" rx="1.6244" transform="matrix(0.866025 0.5 -0.866025 0.5 281.844 102.641)" fill="url(#paint3_linear_1063_40182)" stroke="#22212C" stroke-width="1.6244"/>
<rect width="64.9758" height="48.7319" rx="1.6244" transform="matrix(0.866025 0.5 0 1 225.572 135.129)" fill="url(#paint4_linear_1063_40182)" stroke="#22212C" stroke-width="1.6244"/>
<rect width="64.9758" height="48.7319" rx="1.6244" transform="matrix(0.866025 -0.5 0 1 281.844 167.621)" fill="url(#paint5_linear_1063_40182)" stroke="#22212C" stroke-width="1.6244"/>
<path d="M292.589 189.796V180.05L293.891 179.298V183.35L294.084 183.239L297.232 177.37L298.932 176.388L295.121 183.392L299.064 186.058L297.316 187.067L294.084 184.798L293.891 184.909V189.045L292.589 189.796ZM299.838 185.611V175.865L301.08 175.148V184.894L299.838 185.611ZM305.467 182.556C304.873 182.9 304.342 183.067 303.876 183.057C303.418 183.034 303.056 182.835 302.791 182.459C302.525 182.083 302.393 181.533 302.393 180.809V180.6C302.393 179.876 302.525 179.177 302.791 178.504C303.056 177.822 303.418 177.205 303.876 176.653C304.342 176.096 304.873 175.646 305.467 175.302C306.062 174.959 306.593 174.796 307.059 174.815C307.525 174.833 307.891 175.031 308.156 175.406C308.422 175.773 308.554 176.318 308.554 177.042V177.251C308.554 177.975 308.422 178.678 308.156 179.361C307.891 180.043 307.525 180.663 307.059 181.22C306.593 181.767 306.062 182.213 305.467 182.556ZM305.467 181.275C306.014 180.96 306.456 180.505 306.794 179.911C307.139 179.303 307.312 178.641 307.312 177.927V177.801C307.312 177.087 307.144 176.627 306.806 176.423C306.468 176.209 306.022 176.263 305.467 176.583C304.929 176.894 304.487 177.353 304.141 177.961C303.803 178.556 303.635 179.21 303.635 179.925V180.05C303.635 180.765 303.803 181.229 304.141 181.442C304.487 181.642 304.929 181.586 305.467 181.275ZM312.295 178.614C311.539 179.05 310.912 179.218 310.414 179.115C309.916 179.013 309.61 178.6 309.498 177.876L310.655 176.888C310.72 177.231 310.828 177.47 310.981 177.605C311.134 177.739 311.322 177.788 311.548 177.751C311.781 177.709 312.03 177.612 312.295 177.459C312.689 177.231 312.99 176.969 313.199 176.672C313.417 176.37 313.525 176.08 313.525 175.802C313.525 175.523 313.425 175.377 313.224 175.363C313.023 175.349 312.725 175.414 312.331 175.558L311.921 175.711C311.519 175.86 311.154 175.95 310.824 175.983C310.494 176.015 310.233 175.948 310.04 175.781C309.847 175.614 309.751 175.312 309.751 174.876C309.751 174.226 309.96 173.604 310.378 173.01C310.796 172.407 311.351 171.905 312.042 171.506C312.709 171.121 313.256 170.982 313.682 171.089C314.116 171.181 314.397 171.488 314.526 172.008L313.368 173.052C313.296 172.676 313.143 172.472 312.91 172.439C312.677 172.397 312.388 172.476 312.042 172.676C311.704 172.871 311.439 173.098 311.246 173.358C311.053 173.609 310.957 173.864 310.957 174.124C310.957 174.402 311.049 174.553 311.234 174.576C311.427 174.595 311.684 174.544 312.006 174.423L312.428 174.263C312.854 174.101 313.244 173.992 313.597 173.936C313.951 173.88 314.228 173.934 314.429 174.096C314.638 174.254 314.743 174.565 314.743 175.029C314.743 175.716 314.522 176.377 314.08 177.013C313.638 177.649 313.043 178.183 312.295 178.614ZM318.679 174.929C318.076 175.277 317.549 175.437 317.099 175.409C316.649 175.372 316.295 175.163 316.038 174.783C315.789 174.388 315.664 173.838 315.664 173.133V172.966C315.664 172.251 315.789 171.557 316.038 170.884C316.287 170.202 316.633 169.589 317.075 169.046C317.525 168.489 318.043 168.041 318.63 167.703C319.201 167.373 319.699 167.234 320.125 167.285C320.56 167.322 320.897 167.531 321.138 167.911C321.38 168.292 321.5 168.83 321.5 169.526V170.069L316.93 172.708C316.946 173.302 317.119 173.685 317.449 173.857C317.786 174.014 318.204 173.949 318.703 173.662C319.169 173.393 319.519 173.07 319.752 172.694C319.993 172.313 320.178 171.928 320.306 171.538L321.331 171.559C321.219 171.884 321.054 172.253 320.837 172.666C320.628 173.075 320.351 173.476 320.005 173.871C319.659 174.265 319.217 174.618 318.679 174.929ZM316.942 171.601L320.234 169.701C320.202 169.199 320.041 168.888 319.752 168.768C319.462 168.638 319.084 168.707 318.618 168.977C318.152 169.246 317.77 169.615 317.473 170.083C317.183 170.538 317.006 171.044 316.942 171.601ZM324.761 171.222C324.399 171.431 324.11 171.473 323.893 171.347C323.684 171.217 323.579 170.944 323.579 170.526V166.251L321.939 167.198V165.987L323.579 165.04V162.771L324.821 162.054V164.323L326.594 163.3V164.511L324.821 165.534V169.558C324.821 169.837 324.934 169.911 325.159 169.781L326.401 169.064V170.275L324.761 171.222Z" fill="white"/>
<rect width="64.9758" height="64.9758" rx="1.6244" transform="matrix(0.866025 0.5 -0.866025 0.5 281.844 27.5)" fill="url(#paint6_linear_1063_40182)" stroke="#22212C" stroke-width="1.6244"/>
<rect width="64.9758" height="48.7319" rx="1.6244" transform="matrix(0.866025 0.5 0 1 225.572 59.9883)" fill="url(#paint7_linear_1063_40182)" stroke="#22212C" stroke-width="1.6244"/>
<rect width="64.9758" height="48.7319" rx="1.6244" transform="matrix(0.866025 -0.5 0 1 281.844 92.4805)" fill="url(#paint8_linear_1063_40182)" stroke="#22212C" stroke-width="1.6244"/>
<path d="M292.589 114.656V104.909L293.891 104.158V108.209L294.084 108.098L297.232 102.229L298.932 101.248L295.121 108.251L299.064 110.917L297.316 111.927L294.084 109.657L293.891 109.769V113.904L292.589 114.656ZM299.838 110.471V100.724L301.08 100.007V109.754L299.838 110.471ZM305.467 107.416C304.873 107.759 304.342 107.926 303.876 107.917C303.418 107.894 303.056 107.694 302.791 107.318C302.525 106.942 302.393 106.392 302.393 105.668V105.459C302.393 104.735 302.525 104.037 302.791 103.364C303.056 102.682 303.418 102.064 303.876 101.512C304.342 100.955 304.873 100.505 305.467 100.161C306.062 99.818 306.593 99.6556 307.059 99.6741C307.525 99.6927 307.891 99.8899 308.156 100.266C308.422 100.633 308.554 101.178 308.554 101.902V102.111C308.554 102.835 308.422 103.538 308.156 104.22C307.891 104.902 307.525 105.522 307.059 106.079C306.593 106.627 306.062 107.072 305.467 107.416ZM305.467 106.135C306.014 105.819 306.456 105.364 306.794 104.77C307.139 104.162 307.312 103.501 307.312 102.786V102.661C307.312 101.946 307.144 101.486 306.806 101.282C306.468 101.069 306.022 101.122 305.467 101.442C304.929 101.753 304.487 102.213 304.141 102.821C303.803 103.415 303.635 104.069 303.635 104.784V104.909C303.635 105.624 303.803 106.088 304.141 106.302C304.487 106.501 304.929 106.446 305.467 106.135ZM312.295 103.474C311.539 103.91 310.912 104.077 310.414 103.975C309.916 103.873 309.61 103.46 309.498 102.736L310.655 101.747C310.72 102.091 310.828 102.33 310.981 102.464C311.134 102.599 311.322 102.647 311.548 102.61C311.781 102.569 312.03 102.471 312.295 102.318C312.689 102.091 312.99 101.828 313.199 101.531C313.417 101.23 313.525 100.94 313.525 100.661C313.525 100.383 313.425 100.236 313.224 100.222C313.023 100.209 312.725 100.274 312.331 100.417L311.921 100.571C311.519 100.719 311.154 100.81 310.824 100.842C310.494 100.875 310.233 100.807 310.04 100.64C309.847 100.473 309.751 100.171 309.751 99.7352C309.751 99.0854 309.96 98.4635 310.378 97.8694C310.796 97.2661 311.351 96.7648 312.042 96.3657C312.709 95.9805 313.256 95.8412 313.682 95.948C314.116 96.0408 314.397 96.3471 314.526 96.8669L313.368 97.9112C313.296 97.5353 313.143 97.331 312.91 97.2986C312.677 97.2568 312.388 97.3357 312.042 97.5353C311.704 97.7302 311.439 97.9576 311.246 98.2175C311.053 98.4681 310.957 98.7234 310.957 98.9833C310.957 99.2618 311.049 99.4126 311.234 99.4358C311.427 99.4544 311.684 99.4033 312.006 99.2826L312.428 99.1225C312.854 98.9601 313.244 98.851 313.597 98.7953C313.951 98.7396 314.228 98.793 314.429 98.9554C314.638 99.1132 314.743 99.4242 314.743 99.8883C314.743 100.575 314.522 101.237 314.08 101.872C313.638 102.508 313.043 103.042 312.295 103.474ZM318.679 99.7881C318.076 100.136 317.549 100.296 317.099 100.268C316.649 100.231 316.295 100.023 316.038 99.6419C315.789 99.2474 315.664 98.6975 315.664 97.992V97.8249C315.664 97.1102 315.789 96.4163 316.038 95.7434C316.287 95.0611 316.633 94.4485 317.075 93.9055C317.525 93.3486 318.043 92.9007 318.63 92.5619C319.201 92.2324 319.699 92.0931 320.125 92.1442C320.56 92.1813 320.897 92.3902 321.138 92.7707C321.38 93.1513 321.5 93.6897 321.5 94.3859V94.9289L316.93 97.5673C316.946 98.1614 317.119 98.5443 317.449 98.716C317.786 98.8738 318.204 98.8088 318.703 98.5211C319.169 98.2519 319.519 97.9294 319.752 97.5534C319.993 97.1728 320.178 96.7876 320.306 96.3978L321.331 96.4187C321.219 96.7435 321.054 97.1125 320.837 97.5256C320.628 97.934 320.351 98.3355 320.005 98.7299C319.659 99.1244 319.217 99.4772 318.679 99.7881ZM316.942 96.4604L320.234 94.5599C320.202 94.0587 320.041 93.7477 319.752 93.627C319.462 93.4971 319.084 93.5667 318.618 93.8359C318.152 94.1051 317.77 94.474 317.473 94.9428C317.183 95.3976 317.006 95.9035 316.942 96.4604ZM324.761 96.0815C324.399 96.2904 324.11 96.3321 323.893 96.2068C323.684 96.0769 323.579 95.803 323.579 95.3853V91.1109L321.939 92.0577V90.8463L323.579 89.8995V87.63L324.821 86.913V89.1825L326.594 88.1591V89.3704L324.821 90.3938V94.4177C324.821 94.6961 324.934 94.7704 325.159 94.6404L326.401 93.9234V95.1347L324.761 96.0815Z" fill="white"/>
<path d="M217.074 80.6298C217.555 80.6298 217.944 81.0194 217.944 81.5C217.944 81.9806 217.555 82.3702 217.074 82.3702V80.6298ZM217.074 154.5L208.372 159.524V149.476L217.074 154.5ZM217.074 81.5V82.3702H199.356V81.5V80.6298H217.074V81.5ZM190.074 90.7823H190.944V145.218H190.074H189.204V90.7823H190.074ZM199.356 154.5V153.63H209.242V154.5V155.37H199.356V154.5ZM190.074 145.218H190.944C190.944 149.864 194.711 153.63 199.356 153.63V154.5V155.37C193.749 155.37 189.204 150.825 189.204 145.218H190.074ZM199.356 81.5V82.3702C194.711 82.3702 190.944 86.1364 190.944 90.7823H190.074H189.204C189.204 85.1752 193.749 80.6298 199.356 80.6298V81.5Z" fill="#524CFF"/>
<path d="M217.074 167.63C217.555 167.63 217.944 168.019 217.944 168.5C217.944 168.981 217.555 169.37 217.074 169.37V167.63ZM217.074 242.5L208.372 247.524V237.476L217.074 242.5ZM217.074 168.5V169.37H199.356V168.5V167.63H217.074V168.5ZM190.074 177.782H190.944V233.218H190.074H189.204V177.782H190.074ZM199.356 242.5V241.63H209.242V242.5V243.37H199.356V242.5ZM190.074 233.218H190.944C190.944 237.864 194.711 241.63 199.356 241.63V242.5V243.37C193.749 243.37 189.204 238.825 189.204 233.218H190.074ZM199.356 168.5V169.37C194.711 169.37 190.944 173.136 190.944 177.782H190.074H189.204C189.204 172.175 193.749 167.63 199.356 167.63V168.5Z" fill="#524CFF"/>
<path d="M346.074 80.6298C345.594 80.6298 345.204 81.0194 345.204 81.5C345.204 81.9806 345.594 82.3702 346.074 82.3702V80.6298ZM346.074 242.5L354.776 247.524V237.476L346.074 242.5ZM346.074 81.5V82.3702H371.792V81.5V80.6298H346.074V81.5ZM381.074 90.7823H380.204V233.218H381.074H381.944V90.7823H381.074ZM371.792 242.5V241.63H353.906V242.5V243.37H371.792V242.5ZM381.074 233.218H380.204C380.204 237.864 376.438 241.63 371.792 241.63V242.5V243.37C377.399 243.37 381.944 238.825 381.944 233.218H381.074ZM371.792 81.5V82.3702C376.438 82.3702 380.204 86.1364 380.204 90.7823H381.074H381.944C381.944 85.1752 377.399 80.6298 371.792 80.6298V81.5Z" fill="#6EC796"/>
<rect x="368.261" y="148.863" width="25.9023" height="25.9023" rx="12.9512" fill="#6EC796"/>
<rect x="368.261" y="148.863" width="25.9023" height="25.9023" rx="12.9512" stroke="#22212C" stroke-width="2.69668"/>
<path d="M387.658 158.11L387.032 158.736L380.071 165.698L379.472 166.323L378.847 165.698L375.366 162.217L374.741 161.591L375.992 160.367L376.59 160.993L379.472 163.848L385.809 157.512L386.434 156.887L387.658 158.11Z" fill="white"/>
<rect width="30.85" height="30.85" rx="0.771251" transform="matrix(0.866025 0.5 -0.866025 0.5 75.6426 179.5)" fill="url(#paint9_linear_1063_40182)" stroke="#22212C" stroke-width="0.771251"/>
<rect width="30.85" height="23.1375" rx="0.771251" transform="matrix(0.866025 0.5 0 1 48.9258 194.926)" fill="url(#paint10_linear_1063_40182)" stroke="#22212C" stroke-width="0.771251"/>
<rect width="30.85" height="23.1375" rx="0.771251" transform="matrix(0.866025 -0.5 0 1 75.6426 210.348)" fill="url(#paint11_linear_1063_40182)" stroke="#22212C" stroke-width="0.771251"/>
<path d="M79.4956 221.345V220.71L80.0338 220.399V217.041L79.4956 217.352V216.717L81.528 215.544C81.7685 215.405 81.9784 215.332 82.1578 215.326C82.3372 215.315 82.4765 215.369 82.5757 215.488C82.6788 215.6 82.7303 215.775 82.7303 216.013V216.079C82.7303 216.291 82.6959 216.485 82.6272 216.661C82.5585 216.837 82.4746 216.991 82.3753 217.124C82.2799 217.254 82.1883 217.359 82.1005 217.441V217.547C82.1883 217.523 82.2818 217.521 82.3811 217.543C82.4841 217.559 82.57 217.615 82.6387 217.712C82.7112 217.807 82.7475 217.964 82.7475 218.185V218.251C82.7475 218.506 82.6959 218.754 82.5929 218.995C82.4898 219.235 82.3467 219.456 82.1635 219.659C81.9841 219.859 81.7761 220.028 81.5395 220.165L79.4956 221.345ZM80.6578 220.026L81.4651 219.56C81.6712 219.441 81.8334 219.29 81.9517 219.107C82.07 218.924 82.1292 218.731 82.1292 218.528V218.469C82.1292 218.266 82.07 218.142 81.9517 218.095C81.8372 218.047 81.675 218.083 81.4651 218.205L80.6578 218.671V220.026ZM80.6578 218.016L81.4651 217.55C81.6597 217.438 81.8162 217.292 81.9345 217.114C82.0528 216.931 82.112 216.742 82.112 216.549V216.482C82.112 216.289 82.0528 216.171 81.9345 216.129C81.82 216.08 81.6635 216.113 81.4651 216.228L80.6578 216.694V218.016ZM84.2193 218.71C84.017 218.827 83.8357 218.892 83.6754 218.905C83.5189 218.916 83.393 218.872 83.2976 218.773C83.206 218.671 83.1602 218.511 83.1602 218.29C83.1602 218.065 83.206 217.854 83.2976 217.656C83.393 217.451 83.5208 217.264 83.6811 217.097C83.8453 216.927 84.0304 216.783 84.2365 216.664L85.0952 216.168V215.957C85.0952 215.767 85.0456 215.644 84.9464 215.586C84.8471 215.529 84.6945 215.56 84.4884 215.679C84.2861 215.796 84.1315 215.94 84.0246 216.112C83.9178 216.284 83.8472 216.468 83.8128 216.664L83.2632 216.776C83.309 216.574 83.3815 216.373 83.4808 216.175C83.5838 215.97 83.7193 215.775 83.8872 215.59C84.0552 215.405 84.2575 215.244 84.4941 215.107C84.8605 214.896 85.1487 214.837 85.3586 214.932C85.5685 215.027 85.6735 215.272 85.6735 215.669V217.011C85.6735 217.143 85.7269 217.179 85.8338 217.117L86.0742 216.978V217.547L85.6334 217.801C85.4998 217.878 85.391 217.901 85.3071 217.87C85.2231 217.84 85.1811 217.756 85.1811 217.619V217.599L85.0952 217.649C85.0647 217.733 85.0189 217.836 84.9578 217.96C84.8968 218.083 84.8071 218.212 84.6888 218.346C84.5704 218.476 84.414 218.598 84.2193 218.71ZM84.3052 218.099C84.5418 217.962 84.7326 217.775 84.8777 217.537C85.0227 217.294 85.0952 217.036 85.0952 216.763V216.697L84.2708 217.173C84.1143 217.263 83.9884 217.376 83.893 217.51C83.7976 217.64 83.7498 217.78 83.7498 217.93C83.7498 218.08 83.7995 218.17 83.8987 218.201C83.9979 218.232 84.1334 218.198 84.3052 218.099ZM87.777 216.656C87.506 216.812 87.2599 216.888 87.0385 216.884C86.8209 216.877 86.6473 216.786 86.5175 216.61C86.3916 216.431 86.3286 216.166 86.3286 215.813V215.727C86.3286 215.375 86.3916 215.039 86.5175 214.719C86.6473 214.393 86.8209 214.101 87.0385 213.843C87.2599 213.579 87.506 213.368 87.777 213.212C88.048 213.055 88.2789 212.979 88.4697 212.984C88.6606 212.988 88.8133 213.052 88.9278 213.175C89.0461 213.297 89.1224 213.462 89.1568 213.671L88.5842 214.141C88.5652 214.006 88.5251 213.897 88.464 213.813C88.403 213.73 88.3171 213.684 88.2064 213.678C88.0957 213.671 87.9564 213.716 87.7885 213.813C87.6243 213.908 87.4755 214.038 87.3419 214.203C87.2121 214.362 87.1091 214.545 87.0328 214.752C86.9564 214.955 86.9183 215.171 86.9183 215.4V215.459C86.9183 215.689 86.9564 215.863 87.0328 215.982C87.1091 216.101 87.2121 216.165 87.3419 216.173C87.4755 216.18 87.6243 216.136 87.7885 216.041C88.0366 215.898 88.2255 215.716 88.3552 215.496C88.485 215.271 88.5671 215.034 88.6014 214.785L89.1739 214.607C89.1281 214.858 89.0461 215.112 88.9278 215.37C88.8133 215.626 88.6606 215.866 88.4697 216.091C88.2789 216.311 88.048 216.499 87.777 216.656ZM89.7395 215.43V210.803L90.3292 210.462V213.1L90.4208 213.047L91.5315 211.137L92.3158 210.684L90.8903 213.087L92.3616 213.916L91.583 214.366L90.4208 213.682L90.3292 213.735V215.09L89.7395 215.43ZM93.8603 213.111C93.6466 213.234 93.4558 213.289 93.2878 213.276C93.1199 213.263 92.9882 213.182 92.8928 213.035C92.7974 212.887 92.7497 212.672 92.7497 212.39V210.433L93.3394 210.093V212.003C93.3394 212.285 93.4004 212.46 93.5226 212.526C93.6447 212.587 93.8145 212.555 94.0321 212.43C94.2725 212.291 94.4653 212.087 94.6103 211.818C94.7592 211.543 94.8336 211.229 94.8336 210.876V209.23L95.4233 208.89V212.149L94.845 212.483V211.993L94.7534 212.046C94.7 212.209 94.6046 212.39 94.4672 212.588C94.3298 212.782 94.1275 212.956 93.8603 213.111ZM96.1805 213.034V208.453L96.7587 208.119V208.588L96.8503 208.535C96.9228 208.348 97.0316 208.155 97.1766 207.957C97.3255 207.756 97.5373 207.577 97.8121 207.418C98.0487 207.281 98.2644 207.223 98.459 207.243C98.6575 207.26 98.8159 207.361 98.9342 207.544C99.0563 207.72 99.1174 207.984 99.1174 208.337V208.436C99.1174 208.789 99.0582 209.125 98.9399 209.444C98.8216 209.759 98.6632 210.04 98.4647 210.287C98.2663 210.534 98.0487 210.726 97.8121 210.862C97.6289 210.968 97.4743 211.031 97.3484 211.051C97.2224 211.07 97.1213 211.063 97.0449 211.027C96.9686 210.988 96.9075 210.937 96.8617 210.875L96.7701 210.928V212.693L96.1805 213.034ZM97.6403 210.366C97.8999 210.217 98.1117 209.999 98.2758 209.715C98.4399 209.431 98.522 209.113 98.522 208.76V208.7C98.522 208.352 98.438 208.132 98.2701 208.039C98.106 207.945 97.8961 207.971 97.6403 208.119C97.3884 208.264 97.1785 208.48 97.0106 208.767C96.8465 209.051 96.7644 209.367 96.7644 209.715V209.775C96.7644 210.127 96.8465 210.351 97.0106 210.446C97.1785 210.538 97.3884 210.512 97.6403 210.366Z" fill="white"/>
<rect width="30.85" height="30.85" rx="0.771251" transform="matrix(0.866025 0.5 -0.866025 0.5 75.6484 144.332)" fill="url(#paint12_linear_1063_40182)" stroke="#22212C" stroke-width="0.771251"/>
<rect width="30.85" height="23.1375" rx="0.771251" transform="matrix(0.866025 0.5 0 1 48.9297 159.758)" fill="url(#paint13_linear_1063_40182)" stroke="#22212C" stroke-width="0.771251"/>
<rect width="30.85" height="23.1375" rx="0.771251" transform="matrix(0.866025 -0.5 0 1 75.6484 175.18)" fill="url(#paint14_linear_1063_40182)" stroke="#22212C" stroke-width="0.771251"/>
<path d="M79.4976 186.177V185.542L80.0357 185.231V181.873L79.4976 182.184V181.549L81.53 180.376C81.7704 180.237 81.9804 180.164 82.1597 180.158C82.3391 180.147 82.4784 180.201 82.5777 180.32C82.6807 180.432 82.7322 180.607 82.7322 180.845V180.911C82.7322 181.123 82.6979 181.317 82.6292 181.493C82.5605 181.669 82.4765 181.824 82.3773 181.956C82.2819 182.086 82.1903 182.192 82.1025 182.273V182.379C82.1903 182.355 82.2838 182.353 82.383 182.376C82.4861 182.391 82.5719 182.447 82.6406 182.544C82.7132 182.639 82.7494 182.796 82.7494 183.017V183.083C82.7494 183.338 82.6979 183.586 82.5948 183.827C82.4918 184.067 82.3487 184.288 82.1655 184.491C81.9861 184.691 81.7781 184.86 81.5414 184.997L79.4976 186.177ZM80.6598 184.858L81.467 184.392C81.6731 184.273 81.8353 184.122 81.9536 183.939C82.072 183.756 82.1311 183.563 82.1311 183.361V183.301C82.1311 183.098 82.072 182.974 81.9536 182.928C81.8391 182.879 81.6769 182.915 81.467 183.037L80.6598 183.503V184.858ZM80.6598 182.848L81.467 182.382C81.6617 182.27 81.8181 182.124 81.9365 181.946C82.0548 181.763 82.1139 181.575 82.1139 181.381V181.314C82.1139 181.121 82.0548 181.003 81.9365 180.961C81.822 180.912 81.6655 180.945 81.467 181.06L80.6598 181.526V182.848ZM84.2213 183.542C84.019 183.659 83.8377 183.724 83.6774 183.737C83.5209 183.748 83.3949 183.704 83.2995 183.605C83.2079 183.503 83.1621 183.343 83.1621 183.122C83.1621 182.897 83.2079 182.686 83.2995 182.488C83.3949 182.283 83.5228 182.096 83.6831 181.929C83.8472 181.759 84.0323 181.615 84.2384 181.496L85.0972 181V180.789C85.0972 180.599 85.0476 180.476 84.9483 180.418C84.8491 180.361 84.6964 180.392 84.4903 180.511C84.288 180.628 84.1335 180.772 84.0266 180.944C83.9197 181.116 83.8491 181.3 83.8148 181.496L83.2652 181.608C83.311 181.406 83.3835 181.205 83.4827 181.007C83.5858 180.802 83.7213 180.607 83.8892 180.422C84.0571 180.237 84.2594 180.076 84.4961 179.939C84.8625 179.728 85.1506 179.669 85.3605 179.764C85.5705 179.859 85.6754 180.104 85.6754 180.501V181.843C85.6754 181.975 85.7288 182.011 85.8357 181.949L86.0762 181.81V182.379L85.6353 182.633C85.5018 182.71 85.393 182.733 85.309 182.702C85.225 182.672 85.1831 182.588 85.1831 182.451V182.431L85.0972 182.481C85.0667 182.565 85.0209 182.668 84.9598 182.792C84.8987 182.915 84.809 183.044 84.6907 183.178C84.5724 183.308 84.4159 183.43 84.2213 183.542ZM84.3071 182.931C84.5438 182.794 84.7346 182.607 84.8796 182.369C85.0247 182.126 85.0972 181.868 85.0972 181.595V181.529L84.2728 182.005C84.1163 182.095 83.9903 182.208 83.8949 182.342C83.7995 182.472 83.7518 182.612 83.7518 182.762C83.7518 182.912 83.8014 183.002 83.9006 183.033C83.9999 183.064 84.1354 183.03 84.3071 182.931ZM87.779 181.488C87.508 181.644 87.2618 181.72 87.0404 181.716C86.8229 181.709 86.6492 181.618 86.5195 181.442C86.3935 181.263 86.3305 180.998 86.3305 180.645V180.559C86.3305 180.207 86.3935 179.871 86.5195 179.551C86.6492 179.225 86.8229 178.933 87.0404 178.675C87.2618 178.411 87.508 178.2 87.779 178.044C88.05 177.887 88.2809 177.811 88.4717 177.816C88.6625 177.82 88.8152 177.884 88.9297 178.007C89.048 178.129 89.1244 178.294 89.1587 178.503L88.5862 178.973C88.5671 178.838 88.527 178.729 88.466 178.645C88.4049 178.562 88.319 178.516 88.2083 178.51C88.0977 178.503 87.9584 178.548 87.7904 178.645C87.6263 178.74 87.4775 178.87 87.3439 179.035C87.2141 179.194 87.111 179.377 87.0347 179.584C86.9584 179.787 86.9202 180.003 86.9202 180.232V180.291C86.9202 180.521 86.9584 180.695 87.0347 180.814C87.111 180.933 87.2141 180.997 87.3439 181.005C87.4775 181.012 87.6263 180.968 87.7904 180.873C88.0385 180.73 88.2274 180.548 88.3572 180.328C88.487 180.103 88.569 179.866 88.6034 179.617L89.1759 179.439C89.1301 179.69 89.048 179.944 88.9297 180.202C88.8152 180.458 88.6625 180.698 88.4717 180.923C88.2809 181.143 88.05 181.332 87.779 181.488ZM89.7415 180.262V175.635L90.3312 175.294V177.932L90.4228 177.879L91.5334 175.969L92.3178 175.516L90.8922 177.919L92.3636 178.749L91.585 179.198L90.4228 178.514L90.3312 178.567V179.922L89.7415 180.262ZM93.8623 177.943C93.6485 178.066 93.4577 178.121 93.2898 178.108C93.1218 178.095 92.9902 178.014 92.8948 177.867C92.7993 177.719 92.7516 177.504 92.7516 177.222V175.265L93.3413 174.925V176.835C93.3413 177.117 93.4024 177.292 93.5245 177.358C93.6466 177.419 93.8165 177.387 94.034 177.262C94.2745 177.123 94.4672 176.919 94.6123 176.65C94.7611 176.375 94.8355 176.061 94.8355 175.708V174.062L95.4252 173.722V176.981L94.847 177.315V176.826L94.7554 176.878C94.702 177.041 94.6065 177.222 94.4691 177.42C94.3317 177.614 94.1295 177.788 93.8623 177.943ZM96.1824 177.866V173.285L96.7606 172.951V173.42L96.8522 173.367C96.9248 173.18 97.0335 172.987 97.1786 172.789C97.3274 172.588 97.5392 172.409 97.814 172.25C98.0507 172.113 98.2663 172.055 98.461 172.075C98.6594 172.092 98.8178 172.193 98.9362 172.376C99.0583 172.552 99.1194 172.816 99.1194 173.169V173.268C99.1194 173.621 99.0602 173.957 98.9419 174.276C98.8236 174.591 98.6652 174.872 98.4667 175.119C98.2682 175.366 98.0507 175.558 97.814 175.694C97.6308 175.8 97.4763 175.863 97.3503 175.883C97.2244 175.902 97.1232 175.895 97.0469 175.859C96.9706 175.82 96.9095 175.769 96.8637 175.707L96.7721 175.76V177.525L96.1824 177.866ZM97.6423 175.198C97.9018 175.049 98.1137 174.832 98.2778 174.547C98.4419 174.263 98.524 173.945 98.524 173.592V173.533C98.524 173.184 98.44 172.964 98.2721 172.871C98.1079 172.777 97.898 172.803 97.6423 172.951C97.3904 173.096 97.1805 173.312 97.0125 173.599C96.8484 173.883 96.7664 174.199 96.7664 174.547V174.607C96.7664 174.959 96.8484 175.183 97.0125 175.278C97.1805 175.37 97.3904 175.344 97.6423 175.198Z" fill="white"/>
<rect width="30.85" height="30.85" rx="0.771251" transform="matrix(0.866025 0.5 -0.866025 0.5 75.6484 109.152)" fill="url(#paint15_linear_1063_40182)" stroke="#22212C" stroke-width="0.771251"/>
<rect width="30.85" height="23.1375" rx="0.771251" transform="matrix(0.866025 0.5 0 1 48.9297 124.578)" fill="url(#paint16_linear_1063_40182)" stroke="#22212C" stroke-width="0.771251"/>
<rect width="30.85" height="23.1375" rx="0.771251" transform="matrix(0.866025 -0.5 0 1 75.6484 140)" fill="url(#paint17_linear_1063_40182)" stroke="#22212C" stroke-width="0.771251"/>
<path d="M79.4976 150.997V150.362L80.0357 150.052V146.693L79.4976 147.004V146.369L81.53 145.196C81.7704 145.057 81.9804 144.985 82.1597 144.978C82.3391 144.967 82.4784 145.021 82.5777 145.14C82.6807 145.252 82.7322 145.427 82.7322 145.665V145.732C82.7322 145.943 82.6979 146.137 82.6292 146.313C82.5605 146.49 82.4765 146.644 82.3773 146.776C82.2819 146.906 82.1903 147.012 82.1025 147.093V147.199C82.1903 147.175 82.2838 147.174 82.383 147.196C82.4861 147.211 82.5719 147.267 82.6406 147.364C82.7132 147.459 82.7494 147.617 82.7494 147.837V147.903C82.7494 148.159 82.6979 148.407 82.5948 148.647C82.4918 148.887 82.3487 149.109 82.1655 149.311C81.9861 149.512 81.7781 149.68 81.5414 149.817L79.4976 150.997ZM80.6598 149.678L81.467 149.212C81.6731 149.093 81.8353 148.942 81.9536 148.759C82.072 148.576 82.1311 148.384 82.1311 148.181V148.121C82.1311 147.919 82.072 147.794 81.9536 147.748C81.8391 147.699 81.6769 147.736 81.467 147.857L80.6598 148.323V149.678ZM80.6598 147.668L81.467 147.202C81.6617 147.09 81.8181 146.945 81.9365 146.766C82.0548 146.583 82.1139 146.395 82.1139 146.201V146.135C82.1139 145.941 82.0548 145.823 81.9365 145.781C81.822 145.733 81.6655 145.766 81.467 145.88L80.6598 146.346V147.668ZM84.2213 148.362C84.019 148.479 83.8377 148.544 83.6774 148.557C83.5209 148.568 83.3949 148.524 83.2995 148.425C83.2079 148.324 83.1621 148.163 83.1621 147.943C83.1621 147.718 83.2079 147.506 83.2995 147.308C83.3949 147.103 83.5228 146.917 83.6831 146.749C83.8472 146.58 84.0323 146.435 84.2384 146.316L85.0972 145.821V145.609C85.0972 145.419 85.0476 145.296 84.9483 145.239C84.8491 145.181 84.6964 145.212 84.4903 145.331C84.288 145.448 84.1335 145.592 84.0266 145.764C83.9197 145.936 83.8491 146.12 83.8148 146.316L83.2652 146.429C83.311 146.226 83.3835 146.025 83.4827 145.827C83.5858 145.622 83.7213 145.427 83.8892 145.242C84.0571 145.057 84.2594 144.896 84.4961 144.759C84.8625 144.548 85.1506 144.49 85.3605 144.584C85.5705 144.679 85.6754 144.925 85.6754 145.321V146.663C85.6754 146.796 85.7288 146.831 85.8357 146.769L86.0762 146.63V147.199L85.6353 147.453C85.5018 147.53 85.393 147.554 85.309 147.523C85.225 147.492 85.1831 147.408 85.1831 147.272V147.252L85.0972 147.301C85.0667 147.385 85.0209 147.489 84.9598 147.612C84.8987 147.735 84.809 147.864 84.6907 147.999C84.5724 148.129 84.4159 148.25 84.2213 148.362ZM84.3071 147.751C84.5438 147.614 84.7346 147.427 84.8796 147.189C85.0247 146.947 85.0972 146.689 85.0972 146.415V146.349L84.2728 146.825C84.1163 146.916 83.9903 147.028 83.8949 147.162C83.7995 147.293 83.7518 147.432 83.7518 147.582C83.7518 147.732 83.8014 147.822 83.9006 147.853C83.9999 147.884 84.1354 147.85 84.3071 147.751ZM87.779 146.308C87.508 146.465 87.2618 146.541 87.0404 146.536C86.8229 146.53 86.6492 146.438 86.5195 146.262C86.3935 146.084 86.3305 145.818 86.3305 145.465V145.379C86.3305 145.027 86.3935 144.691 86.5195 144.371C86.6492 144.045 86.8229 143.753 87.0404 143.495C87.2618 143.231 87.508 143.021 87.779 142.864C88.05 142.708 88.2809 142.632 88.4717 142.636C88.6625 142.64 88.8152 142.704 88.9297 142.828C89.048 142.949 89.1244 143.114 89.1587 143.324L88.5862 143.793C88.5671 143.658 88.527 143.549 88.466 143.466C88.4049 143.382 88.319 143.337 88.2083 143.33C88.0977 143.324 87.9584 143.369 87.7904 143.466C87.6263 143.56 87.4775 143.69 87.3439 143.856C87.2141 144.014 87.111 144.197 87.0347 144.404C86.9584 144.607 86.9202 144.823 86.9202 145.052V145.112C86.9202 145.341 86.9584 145.515 87.0347 145.634C87.111 145.753 87.2141 145.817 87.3439 145.826C87.4775 145.832 87.6263 145.788 87.7904 145.693C88.0385 145.55 88.2274 145.368 88.3572 145.148C88.487 144.923 88.569 144.686 88.6034 144.437L89.1759 144.259C89.1301 144.51 89.048 144.765 88.9297 145.023C88.8152 145.278 88.6625 145.518 88.4717 145.743C88.2809 145.963 88.05 146.152 87.779 146.308ZM89.7415 145.083V140.455L90.3312 140.115V142.752L90.4228 142.7L91.5334 140.789L92.3178 140.336L90.8922 142.739L92.3636 143.569L91.585 144.018L90.4228 143.334L90.3312 143.387V144.742L89.7415 145.083ZM93.8623 142.763C93.6485 142.886 93.4577 142.942 93.2898 142.928C93.1218 142.915 92.9902 142.835 92.8948 142.687C92.7993 142.539 92.7516 142.325 92.7516 142.042V140.086L93.3413 139.745V141.656C93.3413 141.938 93.4024 142.112 93.5245 142.178C93.6466 142.24 93.8165 142.208 94.034 142.082C94.2745 141.943 94.4672 141.739 94.6123 141.471C94.7611 141.195 94.8355 140.881 94.8355 140.529V138.883L95.4252 138.542V141.801L94.847 142.135V141.646L94.7554 141.699C94.702 141.862 94.6065 142.042 94.4691 142.241C94.3317 142.435 94.1295 142.609 93.8623 142.763ZM96.1824 142.686V138.105L96.7606 137.771V138.24L96.8522 138.188C96.9248 138 97.0335 137.807 97.1786 137.609C97.3274 137.409 97.5392 137.229 97.814 137.07C98.0507 136.934 98.2663 136.875 98.461 136.895C98.6594 136.913 98.8178 137.013 98.9362 137.196C99.0583 137.372 99.1194 137.637 99.1194 137.989V138.088C99.1194 138.441 99.0602 138.777 98.9419 139.097C98.8236 139.412 98.6652 139.693 98.4667 139.939C98.2682 140.186 98.0507 140.378 97.814 140.515C97.6308 140.62 97.4763 140.683 97.3503 140.703C97.2244 140.723 97.1232 140.715 97.0469 140.68C96.9706 140.64 96.9095 140.589 96.8637 140.528L96.7721 140.581V142.346L96.1824 142.686ZM97.6423 140.019C97.9018 139.869 98.1137 139.652 98.2778 139.368C98.4419 139.083 98.524 138.765 98.524 138.412V138.353C98.524 138.005 98.44 137.784 98.2721 137.692C98.1079 137.597 97.898 137.623 97.6423 137.771C97.3904 137.917 97.1805 138.132 97.0125 138.419C96.8484 138.703 96.7664 139.019 96.7664 139.368V139.427C96.7664 139.78 96.8484 140.003 97.0125 140.098C97.1805 140.191 97.3904 140.164 97.6423 140.019Z" fill="white"/>
<path d="M106.074 135.087C105.846 135.087 105.661 135.272 105.661 135.5C105.661 135.728 105.846 135.913 106.074 135.913V135.087ZM106.074 210.5L110.206 212.885V208.115L106.074 210.5ZM106.074 135.5V135.913H107.648V135.5V135.087H106.074V135.5ZM110.797 135.5V135.913H113.945V135.5V135.087H110.797V135.5ZM117.093 135.5V135.913H118.667V135.5V135.087H117.093V135.5ZM118.667 135.5V135.913C119.209 135.913 119.725 136.021 120.196 136.216L120.354 135.834L120.512 135.453C119.943 135.217 119.32 135.087 118.667 135.087V135.5ZM122.74 138.22L122.358 138.378C122.553 138.849 122.661 139.365 122.661 139.907H123.074H123.487C123.487 139.254 123.357 138.631 123.121 138.062L122.74 138.22ZM123.074 139.907H122.661V141.286H123.074H123.487V139.907H123.074ZM123.074 144.044H122.661V146.801H123.074H123.487V144.044H123.074ZM123.074 149.559H122.661V152.317H123.074H123.487V149.559H123.074ZM123.074 155.075H122.661V157.832H123.074H123.487V155.075H123.074ZM123.074 160.59H122.661V163.348H123.074H123.487V160.59H123.074ZM123.074 166.106H122.661V168.863H123.074H123.487V166.106H123.074ZM123.074 171.621H122.661V174.379H123.074H123.487V171.621H123.074ZM123.074 177.137H122.661V179.894H123.074H123.487V177.137H123.074ZM123.074 182.652H122.661V185.41H123.074H123.487V182.652H123.074ZM123.074 188.168H122.661V190.925H123.074H123.487V188.168H123.074ZM123.074 193.683H122.661V196.441H123.074H123.487V193.683H123.074ZM123.074 199.198H122.661V201.956H123.074H123.487V199.198H123.074ZM123.074 204.714H122.661V206.093H123.074H123.487V204.714H123.074ZM123.074 206.093H122.661C122.661 206.635 122.553 207.151 122.358 207.622L122.74 207.78L123.121 207.938C123.357 207.369 123.487 206.746 123.487 206.093H123.074ZM120.354 210.166L120.196 209.784C119.725 209.979 119.209 210.087 118.667 210.087V210.5V210.913C119.32 210.913 119.943 210.783 120.512 210.547L120.354 210.166ZM118.667 210.5V210.087H117.093V210.5V210.913H118.667V210.5ZM113.945 210.5V210.087H110.797V210.5V210.913H113.945V210.5Z" fill="#F55E43"/>
<path d="M45 135.087C45.2282 135.087 45.4132 135.272 45.4132 135.5C45.4132 135.728 45.2282 135.913 45 135.913V135.087ZM45 169.5L40.8683 171.885V167.115L45 169.5ZM45 135.5V135.913H36.4071V135.5V135.087H45V135.5ZM32 139.907H32.4132V165.093H32H31.5868V139.907H32ZM36.4071 169.5V169.087H41.2815V169.5V169.913H36.4071V169.5ZM32 165.093H32.4132C32.4132 167.299 34.2013 169.087 36.4071 169.087V169.5V169.913C33.745 169.913 31.5868 167.755 31.5868 165.093H32ZM36.4071 135.5V135.913C34.2013 135.913 32.4132 137.701 32.4132 139.907H32H31.5868C31.5868 137.245 33.745 135.087 36.4071 135.087V135.5Z" fill="#8E8D97"/>
<path d="M45 175.087C45.2282 175.087 45.4132 175.272 45.4132 175.5C45.4132 175.728 45.2282 175.913 45 175.913V175.087ZM45 210.5L40.8683 212.885V208.115L45 210.5ZM45 175.5V175.913H36.4071V175.5V175.087H45V175.5ZM32 179.907H32.4132V206.093H32H31.5868V179.907H32ZM36.4071 210.5V210.087H41.2815V210.5V210.913H36.4071V210.5ZM32 206.093H32.4132C32.4132 208.299 34.2013 210.087 36.4071 210.087V210.5V210.913C33.745 210.913 31.5868 208.755 31.5868 206.093H32ZM36.4071 175.5V175.913C34.2013 175.913 32.4132 177.701 32.4132 179.907H32H31.5868C31.5868 177.245 33.745 175.087 36.4071 175.087V175.5Z" fill="#8E8D97"/>
<rect x="116.564" y="166.24" width="12.3662" height="12.3662" rx="6.1831" fill="#F55E43"/>
<rect x="116.564" y="166.24" width="12.3662" height="12.3662" rx="6.1831" stroke="#1C1C1E" stroke-width="1.34834"/>
<path d="M124.452 171.294L123.303 172.443L124.452 173.605L124.749 173.889L124.168 174.483L123.871 174.186L122.722 173.037L121.56 174.186L121.276 174.483L120.682 173.889L120.979 173.605L122.128 172.443L120.979 171.294L120.682 170.997L121.276 170.416L121.56 170.713L122.722 171.862L123.871 170.713L124.168 170.416L124.749 170.997L124.452 171.294Z" fill="white"/>
<path d="M45.7187 67.3438V58.415H42.5299V56.9615H50.5094V58.415H47.3205V67.3438H45.7187ZM50.6373 67.3438V60.0317H52.1353V60.8919H52.3726C52.4913 60.5854 52.6791 60.3629 52.9362 60.2245C53.2032 60.0762 53.5295 60.002 53.9151 60.002H54.7902V61.3814H53.8558C53.3614 61.3814 52.956 61.5198 52.6396 61.7967C52.3232 62.0636 52.165 62.4789 52.165 63.0425V67.3438H50.6373ZM58.1429 67.5514C57.6188 67.5514 57.1491 67.4624 56.7338 67.2844C56.3284 67.1064 56.0021 66.8444 55.7549 66.4983C55.5176 66.1523 55.399 65.732 55.399 65.2376C55.399 64.7334 55.5176 64.3181 55.7549 63.9918C56.0021 63.6556 56.3334 63.4034 56.7487 63.2354C57.1739 63.0673 57.6534 62.9832 58.1874 62.9832H60.4121V62.5086C60.4121 62.0834 60.2836 61.7423 60.0265 61.4852C59.7694 61.2281 59.3739 61.0996 58.84 61.0996C58.3159 61.0996 57.9154 61.2232 57.6386 61.4704C57.3617 61.7176 57.1788 62.0389 57.0898 62.4344L55.666 61.9747C55.7846 61.5791 55.9725 61.2232 56.2296 60.9068C56.4965 60.5805 56.8476 60.3184 57.2826 60.1207C57.7177 59.9229 58.2417 59.8241 58.8548 59.8241C59.804 59.8241 60.5505 60.0663 61.0944 60.5508C61.6382 61.0353 61.9101 61.7225 61.9101 62.6124V65.6233C61.9101 65.9199 62.0486 66.0682 62.3254 66.0682H62.9483V67.3438H61.8063C61.4602 67.3438 61.1784 67.2548 60.9609 67.0768C60.7434 66.8988 60.6346 66.6565 60.6346 66.35V66.3055H60.4121C60.333 66.4538 60.2144 66.6269 60.0562 66.8246C59.8979 67.0224 59.6656 67.1954 59.3591 67.3438C59.0525 67.4822 58.6471 67.5514 58.1429 67.5514ZM58.3653 66.2907C58.9784 66.2907 59.4728 66.1177 59.8485 65.7716C60.2242 65.4156 60.4121 64.9311 60.4121 64.3181V64.1698H58.2763C57.8709 64.1698 57.5446 64.2587 57.2974 64.4367C57.0503 64.6048 56.9267 64.857 56.9267 65.1931C56.9267 65.5293 57.0552 65.7963 57.3123 65.9941C57.5694 66.1918 57.9204 66.2907 58.3653 66.2907ZM66.989 67.5514C66.3858 67.5514 65.8271 67.4031 65.313 67.1064C64.7988 66.8098 64.3835 66.3846 64.0671 65.8309C63.7606 65.2673 63.6073 64.59 63.6073 63.799V63.5765C63.6073 62.7953 63.7606 62.123 64.0671 61.5594C64.3736 60.9958 64.784 60.5656 65.2981 60.269C65.8123 59.9724 66.3759 59.8241 66.989 59.8241C67.4636 59.8241 67.8591 59.8834 68.1755 60.002C68.5018 60.1207 68.7688 60.274 68.9764 60.4618C69.184 60.6398 69.3423 60.8277 69.451 61.0254H69.6883V56.9615H71.216V67.3438H69.718V66.3055H69.4807C69.2928 66.6219 69.0061 66.9087 68.6204 67.1658C68.2447 67.4229 67.7009 67.5514 66.989 67.5514ZM67.4191 66.2165C68.0816 66.2165 68.6254 66.0039 69.0506 65.5788C69.4856 65.1536 69.7032 64.5455 69.7032 63.7545V63.621C69.7032 62.8398 69.4906 62.2367 69.0654 61.8115C68.6402 61.3863 68.0914 61.1737 67.4191 61.1737C66.7665 61.1737 66.2226 61.3863 65.7876 61.8115C65.3624 62.2367 65.1498 62.8398 65.1498 63.621V63.7545C65.1498 64.5455 65.3624 65.1536 65.7876 65.5788C66.2226 66.0039 66.7665 66.2165 67.4191 66.2165ZM73.1682 67.3438V60.0317H74.6959V67.3438H73.1682ZM73.9395 59.038C73.6428 59.038 73.3907 58.944 73.1831 58.7562C72.9853 58.5584 72.8864 58.3063 72.8864 57.9997C72.8864 57.6932 72.9853 57.446 73.1831 57.2582C73.3907 57.0604 73.6428 56.9615 73.9395 56.9615C74.246 56.9615 74.4981 57.0604 74.6959 57.2582C74.8937 57.446 74.9925 57.6932 74.9925 57.9997C74.9925 58.3063 74.8937 58.5584 74.6959 58.7562C74.4981 58.944 74.246 59.038 73.9395 59.038ZM79.4103 67.3438C78.9654 67.3438 78.6094 67.2103 78.3424 66.9433C78.0853 66.6763 77.9568 66.3204 77.9568 65.8754V61.3221H75.9397V60.0317H77.9568V57.6141H79.4845V60.0317H81.6647V61.3221H79.4845V65.6084C79.4845 65.9051 79.6229 66.0534 79.8998 66.0534H81.4274V67.3438H79.4103ZM83.1629 67.3438V60.0317H84.6905V67.3438H83.1629ZM83.9341 59.038C83.6375 59.038 83.3853 58.944 83.1777 58.7562C82.9799 58.5584 82.8811 58.3063 82.8811 57.9997C82.8811 57.6932 82.9799 57.446 83.1777 57.2582C83.3853 57.0604 83.6375 56.9615 83.9341 56.9615C84.2406 56.9615 84.4928 57.0604 84.6905 57.2582C84.8883 57.446 84.9872 57.6932 84.9872 57.9997C84.9872 58.3063 84.8883 58.5584 84.6905 58.7562C84.4928 58.944 84.2406 59.038 83.9341 59.038ZM90.0872 67.5514C89.3555 67.5514 88.7029 67.4031 88.1294 67.1064C87.5658 66.7999 87.1208 66.3649 86.7945 65.8012C86.4682 65.2376 86.3051 64.5702 86.3051 63.799V63.5765C86.3051 62.8052 86.4682 62.1428 86.7945 61.589C87.1208 61.0254 87.5658 60.5904 88.1294 60.2838C88.7029 59.9773 89.3555 59.8241 90.0872 59.8241C90.8189 59.8241 91.4715 59.9773 92.045 60.2838C92.6185 60.5904 93.0684 61.0254 93.3947 61.589C93.721 62.1428 93.8841 62.8052 93.8841 63.5765V63.799C93.8841 64.5702 93.721 65.2376 93.3947 65.8012C93.0684 66.3649 92.6185 66.7999 92.045 67.1064C91.4715 67.4031 90.8189 67.5514 90.0872 67.5514ZM90.0872 66.1869C90.7596 66.1869 91.3034 65.9743 91.7187 65.5491C92.1439 65.114 92.3565 64.5158 92.3565 63.7545V63.621C92.3565 62.8596 92.1488 62.2663 91.7335 61.8412C91.3182 61.4061 90.7695 61.1886 90.0872 61.1886C89.4247 61.1886 88.8809 61.4061 88.4557 61.8412C88.0404 62.2663 87.8328 62.8596 87.8328 63.621V63.7545C87.8328 64.5158 88.0404 65.114 88.4557 65.5491C88.8809 65.9743 89.4247 66.1869 90.0872 66.1869ZM95.4894 67.3438V60.0317H96.9874V61.1292H97.2247C97.3632 60.8326 97.6104 60.5558 97.9663 60.2987C98.3223 60.0416 98.8513 59.913 99.5533 59.913C100.107 59.913 100.596 60.0366 101.022 60.2838C101.457 60.531 101.798 60.8821 102.045 61.3369C102.292 61.7818 102.416 62.3207 102.416 62.9536V67.3438H100.888V63.0722C100.888 62.4394 100.73 61.9747 100.414 61.678C100.097 61.3715 99.6621 61.2182 99.1084 61.2182C98.4756 61.2182 97.9663 61.4259 97.5807 61.8412C97.205 62.2565 97.0171 62.8596 97.0171 63.6506V67.3438H95.4894ZM106.587 67.5514C106.063 67.5514 105.593 67.4624 105.178 67.2844C104.773 67.1064 104.446 66.8444 104.199 66.4983C103.962 66.1523 103.843 65.732 103.843 65.2376C103.843 64.7334 103.962 64.3181 104.199 63.9918C104.446 63.6556 104.778 63.4034 105.193 63.2354C105.618 63.0673 106.098 62.9832 106.632 62.9832H108.856V62.5086C108.856 62.0834 108.728 61.7423 108.471 61.4852C108.214 61.2281 107.818 61.0996 107.284 61.0996C106.76 61.0996 106.36 61.2232 106.083 61.4704C105.806 61.7176 105.623 62.0389 105.534 62.4344L104.11 61.9747C104.229 61.5791 104.417 61.2232 104.674 60.9068C104.941 60.5805 105.292 60.3184 105.727 60.1207C106.162 59.9229 106.686 59.8241 107.299 59.8241C108.248 59.8241 108.995 60.0663 109.539 60.5508C110.082 61.0353 110.354 61.7225 110.354 62.6124V65.6233C110.354 65.9199 110.493 66.0682 110.77 66.0682H111.393V67.3438H110.25C109.904 67.3438 109.623 67.2548 109.405 67.0768C109.188 66.8988 109.079 66.6565 109.079 66.35V66.3055H108.856C108.777 66.4538 108.659 66.6269 108.5 66.8246C108.342 67.0224 108.11 67.1954 107.803 67.3438C107.497 67.4822 107.091 67.5514 106.587 67.5514ZM106.81 66.2907C107.423 66.2907 107.917 66.1177 108.293 65.7716C108.668 65.4156 108.856 64.9311 108.856 64.3181V64.1698H106.721C106.315 64.1698 105.989 64.2587 105.742 64.4367C105.494 64.6048 105.371 64.857 105.371 65.1931C105.371 65.5293 105.499 65.7963 105.756 65.9941C106.014 66.1918 106.365 66.2907 106.81 66.2907ZM112.581 67.3438V56.9615H114.109V67.3438H112.581Z" fill="white"/>
<path d="M37.5564 74.793H38.3762V77.9104H38.5057C38.8077 77.3926 39.3362 76.8425 40.4257 76.8425C41.828 76.8425 42.9174 77.9859 42.9174 79.6686C42.9174 81.3514 41.828 82.4948 40.4257 82.4948C39.3362 82.4948 38.8077 81.9446 38.5057 81.4269H38.3547V82.3438H37.5564V74.793ZM40.2315 77.5868C39.1205 77.5868 38.3762 78.3958 38.3762 79.6686C38.3762 80.9415 39.1205 81.7505 40.2315 81.7505C41.3318 81.7505 42.0869 80.9738 42.0869 79.6686C42.0869 78.3634 41.3318 77.5868 40.2315 77.5868ZM43.8825 78.439C44.26 77.6084 45.0906 76.8425 46.4066 76.8425C47.8305 76.8425 48.715 77.6623 48.715 78.9244V82.3438H47.8952V81.4377H47.7549C47.5069 81.9446 46.9244 82.4948 45.7702 82.4948C44.5837 82.4948 43.807 81.8583 43.807 80.8983C43.807 79.9707 44.5297 79.4637 45.7486 79.345L47.8952 79.1509V78.8812C47.8952 78.083 47.3343 77.5868 46.385 77.5868C45.4466 77.5868 44.9073 78.0722 44.6052 78.7626L43.8825 78.439ZM44.6376 80.8768C44.6376 81.4592 45.1122 81.7936 45.8781 81.7936C47.1509 81.7936 47.8952 81.0386 47.8952 79.9383V79.8089L45.8565 80.003C45.1122 80.0678 44.6376 80.3374 44.6376 80.8768ZM49.9257 79.6686C49.9257 78.0291 51.0907 76.8425 52.6439 76.8425C54.0246 76.8425 54.9631 77.727 55.1573 78.8704L54.3375 79.043C54.2404 78.2016 53.6255 77.5976 52.6439 77.5976C51.5545 77.5976 50.7563 78.4497 50.7563 79.6686C50.7563 80.8875 51.5545 81.7397 52.6655 81.7397C53.7226 81.7397 54.208 81.0817 54.359 80.2943L55.1788 80.4561C54.9631 81.5132 54.1433 82.4948 52.6655 82.4948C51.0907 82.4948 49.9257 81.3082 49.9257 79.6686ZM61.5361 76.9935L59.0875 79.0322L61.5037 82.3438H60.5006L58.4834 79.5392L57.2214 80.5855V82.3438H56.4016V74.793H57.2214V79.4745H57.3508L60.2848 76.9935H61.5361ZM67.3538 82.3438H66.5447V81.4053H66.3937C66.1241 81.9231 65.6171 82.4408 64.5492 82.4408C63.4382 82.4408 62.4782 81.7289 62.4782 80.2727V76.9935H63.2979V80.1972C63.2979 81.2219 63.8589 81.7073 64.7757 81.7073C65.8113 81.7073 66.5232 81.0386 66.5232 79.7873V76.9935H67.3538V82.3438ZM68.958 84.5011V76.9935H69.7562V77.9104H69.9073C70.2093 77.3926 70.7378 76.8425 71.8273 76.8425C73.2296 76.8425 74.319 77.9859 74.319 79.6686C74.319 81.3514 73.2296 82.4948 71.8273 82.4948C70.7378 82.4948 70.2093 81.9446 69.9073 81.4269H69.7778V84.5011H68.958ZM71.6331 81.7505C72.7334 81.7505 73.4885 80.9738 73.4885 79.6686C73.4885 78.3634 72.7334 77.5868 71.6331 77.5868C70.5221 77.5868 69.7778 78.3958 69.7778 79.6686C69.7778 80.9415 70.5221 81.7505 71.6331 81.7505ZM75.3601 78.385C75.3601 77.4142 76.2662 76.8425 77.3449 76.8425C78.402 76.8425 79.157 77.2632 79.9553 78.234L79.3188 78.6655C78.7579 77.878 78.0676 77.5437 77.3557 77.5437C76.6761 77.5437 76.1799 77.8457 76.1799 78.3742C76.1799 78.9567 76.7516 79.0754 77.3988 79.1725L77.895 79.248C79.1139 79.4205 79.9768 79.7549 79.9768 80.7689C79.9768 81.7828 79.0492 82.4948 77.6793 82.4948C76.1907 82.4948 75.3385 81.5995 74.9502 80.7689L75.6945 80.3914C76.0397 81.2651 76.7516 81.7721 77.7008 81.7721C78.5638 81.7721 79.1463 81.3729 79.1463 80.8012C79.1463 80.2188 78.4883 80.1001 77.7979 80.003L77.3017 79.9275C76.1475 79.7549 75.3601 79.3774 75.3601 78.385ZM84.4298 78.385C84.4298 77.4142 85.3359 76.8425 86.4146 76.8425C87.4717 76.8425 88.2267 77.2632 89.025 78.234L88.3885 78.6655C87.8276 77.878 87.1373 77.5437 86.4254 77.5437C85.7458 77.5437 85.2496 77.8457 85.2496 78.3742C85.2496 78.9567 85.8213 79.0754 86.4685 79.1725L86.9647 79.248C88.1836 79.4205 89.0465 79.7549 89.0465 80.7689C89.0465 81.7828 88.1189 82.4948 86.749 82.4948C85.2604 82.4948 84.4082 81.5995 84.0199 80.7689L84.7642 80.3914C85.1094 81.2651 85.8213 81.7721 86.7705 81.7721C87.6335 81.7721 88.216 81.3729 88.216 80.8012C88.216 80.2188 87.558 80.1001 86.8676 80.003L86.3714 79.9275C85.2172 79.7549 84.4298 79.3774 84.4298 78.385ZM94.1639 76.9935H95.0592L92.0066 84.5011H91.1113L91.8987 82.6134L89.6119 76.9935H90.518L92.2762 81.4485H92.3949L94.1639 76.9935ZM95.8907 78.385C95.8907 77.4142 96.7968 76.8425 97.8755 76.8425C98.9326 76.8425 99.6876 77.2632 100.486 78.234L99.8494 78.6655C99.2885 77.878 98.5982 77.5437 97.8863 77.5437C97.2067 77.5437 96.7105 77.8457 96.7105 78.3742C96.7105 78.9567 97.2822 79.0754 97.9294 79.1725L98.4256 79.248C99.6445 79.4205 100.507 79.7549 100.507 80.7689C100.507 81.7828 99.5798 82.4948 98.2099 82.4948C96.7213 82.4948 95.8691 81.5995 95.4808 80.7689L96.2251 80.3914C96.5703 81.2651 97.2822 81.7721 98.2314 81.7721C99.0944 81.7721 99.6768 81.3729 99.6768 80.8012C99.6768 80.2188 99.0189 80.1001 98.3285 80.003L97.8323 79.9275C96.6781 79.7549 95.8907 79.3774 95.8907 78.385ZM101.05 76.9935H102.646V75.1814H103.477V76.9935H105.149V77.7162H103.477V81.3082C103.477 81.524 103.563 81.621 103.757 81.621H104.847V82.3438H103.455C102.97 82.3438 102.646 82.0201 102.646 81.5132V77.7162H101.05V76.9935ZM105.913 79.6255C105.913 78.0506 107.057 76.8425 108.578 76.8425C110.088 76.8425 111.167 77.9104 111.167 79.4961V79.9383H106.776C106.841 81.0601 107.575 81.7613 108.632 81.7613C109.495 81.7613 109.969 81.319 110.26 80.715L110.983 81.0925C110.606 81.7721 109.958 82.4948 108.642 82.4948C107.003 82.4948 105.913 81.2435 105.913 79.6255ZM106.776 79.2587H110.304C110.282 78.1909 109.581 77.576 108.578 77.576C107.585 77.576 106.873 78.1909 106.776 79.2587ZM112.442 76.9935H113.24V77.6947H113.391C113.672 77.2201 114.157 76.8965 114.88 76.8965C115.667 76.8965 116.142 77.3063 116.379 77.8349H116.53C116.789 77.2956 117.307 76.8965 118.127 76.8965C119.119 76.8965 119.917 77.5868 119.917 78.6439V82.3438H119.087V78.7086C119.087 78.0398 118.612 77.6192 117.889 77.6192C117.156 77.6192 116.595 78.0938 116.595 78.9999V82.3438H115.764V78.7086C115.764 78.0398 115.311 77.6192 114.599 77.6192C113.855 77.6192 113.262 78.0938 113.262 78.9999V82.3438H112.442V76.9935Z" fill="#6B6A76"/>
<defs>
<linearGradient id="paint0_linear_1063_40182" x1="0" y1="32.4879" x2="64.9758" y2="32.4879" gradientUnits="userSpaceOnUse">
<stop stop-color="#8F8DFF"/>
<stop offset="1" stop-color="#524CFF"/>
</linearGradient>
<linearGradient id="paint1_linear_1063_40182" x1="0" y1="24.3659" x2="64.9758" y2="24.3659" gradientUnits="userSpaceOnUse">
<stop stop-color="#8F8DFF"/>
<stop offset="1" stop-color="#524CFF"/>
</linearGradient>
<linearGradient id="paint2_linear_1063_40182" x1="0" y1="24.3659" x2="64.9758" y2="24.3659" gradientUnits="userSpaceOnUse">
<stop stop-color="#8F8DFF"/>
<stop offset="1" stop-color="#524CFF"/>
</linearGradient>
<linearGradient id="paint3_linear_1063_40182" x1="0" y1="32.4879" x2="64.9758" y2="32.4879" gradientUnits="userSpaceOnUse">
<stop stop-color="#8F8DFF"/>
<stop offset="1" stop-color="#524CFF"/>
</linearGradient>
<linearGradient id="paint4_linear_1063_40182" x1="0" y1="24.3659" x2="64.9758" y2="24.3659" gradientUnits="userSpaceOnUse">
<stop stop-color="#8F8DFF"/>
<stop offset="1" stop-color="#524CFF"/>
</linearGradient>
<linearGradient id="paint5_linear_1063_40182" x1="0" y1="24.3659" x2="64.9758" y2="24.3659" gradientUnits="userSpaceOnUse">
<stop stop-color="#8F8DFF"/>
<stop offset="1" stop-color="#524CFF"/>
</linearGradient>
<linearGradient id="paint6_linear_1063_40182" x1="0" y1="32.4879" x2="64.9758" y2="32.4879" gradientUnits="userSpaceOnUse">
<stop stop-color="#8F8DFF"/>
<stop offset="1" stop-color="#524CFF"/>
</linearGradient>
<linearGradient id="paint7_linear_1063_40182" x1="0" y1="24.3659" x2="64.9758" y2="24.3659" gradientUnits="userSpaceOnUse">
<stop stop-color="#8F8DFF"/>
<stop offset="1" stop-color="#524CFF"/>
</linearGradient>
<linearGradient id="paint8_linear_1063_40182" x1="0" y1="24.3659" x2="64.9758" y2="24.3659" gradientUnits="userSpaceOnUse">
<stop stop-color="#8F8DFF"/>
<stop offset="1" stop-color="#524CFF"/>
</linearGradient>
<linearGradient id="paint9_linear_1063_40182" x1="0" y1="15.425" x2="30.85" y2="15.425" gradientUnits="userSpaceOnUse">
<stop stop-color="#C6C6C6"/>
<stop offset="1" stop-color="#A6A6A6"/>
</linearGradient>
<linearGradient id="paint10_linear_1063_40182" x1="0" y1="11.5688" x2="30.85" y2="11.5688" gradientUnits="userSpaceOnUse">
<stop stop-color="#C6C6C6"/>
<stop offset="1" stop-color="#A6A6A6"/>
</linearGradient>
<linearGradient id="paint11_linear_1063_40182" x1="0" y1="11.5688" x2="30.85" y2="11.5688" gradientUnits="userSpaceOnUse">
<stop stop-color="#C6C6C6"/>
<stop offset="1" stop-color="#A6A6A6"/>
</linearGradient>
<linearGradient id="paint12_linear_1063_40182" x1="0" y1="15.425" x2="30.85" y2="15.425" gradientUnits="userSpaceOnUse">
<stop stop-color="#C6C6C6"/>
<stop offset="1" stop-color="#A6A6A6"/>
</linearGradient>
<linearGradient id="paint13_linear_1063_40182" x1="0" y1="11.5688" x2="30.85" y2="11.5688" gradientUnits="userSpaceOnUse">
<stop stop-color="#C6C6C6"/>
<stop offset="1" stop-color="#A6A6A6"/>
</linearGradient>
<linearGradient id="paint14_linear_1063_40182" x1="0" y1="11.5688" x2="30.85" y2="11.5688" gradientUnits="userSpaceOnUse">
<stop stop-color="#C6C6C6"/>
<stop offset="1" stop-color="#A6A6A6"/>
</linearGradient>
<linearGradient id="paint15_linear_1063_40182" x1="0" y1="15.425" x2="30.85" y2="15.425" gradientUnits="userSpaceOnUse">
<stop stop-color="#C6C6C6"/>
<stop offset="1" stop-color="#A6A6A6"/>
</linearGradient>
<linearGradient id="paint16_linear_1063_40182" x1="0" y1="11.5688" x2="30.85" y2="11.5688" gradientUnits="userSpaceOnUse">
<stop stop-color="#C6C6C6"/>
<stop offset="1" stop-color="#A6A6A6"/>
</linearGradient>
<linearGradient id="paint17_linear_1063_40182" x1="0" y1="11.5688" x2="30.85" y2="11.5688" gradientUnits="userSpaceOnUse">
<stop stop-color="#C6C6C6"/>
<stop offset="1" stop-color="#A6A6A6"/>
</linearGradient>
</defs>
</svg>
