<svg width="36" height="36" viewBox="0 0 36 36" fill="none" xmlns="http://www.w3.org/2000/svg">
    <g opacity="0.2">
        <rect x="0.25" y="0.371094" width="35.5" height="35.5" rx="17.75" fill="#8C8C94"/>
        <g clip-path="url(#clip0_574_11929)">
            <path d="M26.0297 15.0903C25.6779 13.9676 25.1013 12.9462 24.3536 12.0776C24.8844 11.6832 25.2282 11.0482 25.2282 10.3332C25.2282 9.13591 24.2646 8.16602 23.0769 8.16602C22.1036 8.16602 21.2819 8.81705 21.0165 9.70967C20.0669 9.33841 19.0353 9.13502 17.9562 9.13502C16.9837 9.13502 16.0491 9.30111 15.1789 9.60487C14.8818 8.76643 14.0865 8.16602 13.1519 8.16602C11.9634 8.16602 11.0006 9.1368 11.0006 10.3332C11.0006 10.9629 11.2669 11.5296 11.6927 11.9257C10.8798 12.8254 10.2556 13.901 9.88265 15.0894V15.0912C6.6945 15.4606 4.21875 18.1882 4.21875 21.4985C4.21875 25.061 7.08596 27.9494 10.6224 27.9494C12.2041 27.9494 13.6509 27.3703 14.768 26.4128L19.9796 26.4235L21.1408 26.4164C22.2579 27.372 23.7029 27.9494 25.2829 27.9494C28.8193 27.9494 31.6865 25.061 31.6865 21.4985C31.6865 18.19 29.2143 15.4633 26.0297 15.0903ZM17.9544 10.517C18.5504 10.517 19.1288 10.5952 19.6816 10.7497L18.6201 14.9375C18.5883 15.0636 18.4861 15.1498 18.3679 15.148C18.1378 15.1445 17.7613 15.1453 17.5312 15.1489C17.4131 15.1507 17.3108 15.0645 17.2782 14.9384L16.2237 10.7524C16.7791 10.5961 17.3575 10.517 17.9535 10.517H17.9544ZM19.0768 18.1287L18.3838 18.7469C18.1378 18.9663 17.7666 18.9663 17.5206 18.7469L16.8276 18.1287C16.3788 17.7282 16.6601 16.9821 17.2596 16.9821H18.6456C19.2452 16.9821 19.5255 17.7291 19.0777 18.1287H19.0768ZM15.0687 14.7288C15.5571 14.7288 15.953 15.2688 15.953 15.9358C15.953 16.6028 15.5571 17.1429 15.0687 17.1429C14.5802 17.1429 14.1843 16.6028 14.1843 15.9358C14.1843 15.2688 14.5802 14.7288 15.0687 14.7288ZM21.2871 22.5696C21.5851 22.8743 21.5825 23.3646 21.2801 23.6648C21.1302 23.814 20.9354 23.8877 20.7396 23.8877C20.5439 23.8877 20.3429 23.8104 20.1921 23.6568C19.7856 23.242 19.507 22.6638 19.3845 22.0083C18.8758 22.1167 18.3564 22.1717 17.8371 22.1717C17.3928 22.1717 16.9484 22.1318 16.5111 22.0518C16.385 22.6887 16.1091 23.2509 15.7123 23.6568C15.5615 23.8104 15.3632 23.8877 15.1648 23.8877C14.9664 23.8877 14.7742 23.8131 14.6243 23.6648C14.3219 23.3646 14.3184 22.8734 14.6173 22.5696C14.8271 22.3556 15.051 21.8964 15.051 21.2498C15.051 20.7027 14.8738 20.1778 14.6005 19.914C14.2937 19.6182 14.284 19.1279 14.5776 18.8189C14.8712 18.5098 15.3587 18.5 15.6647 18.7958C16.0861 19.2025 16.3833 19.8012 16.5137 20.4735C17.4298 20.6849 18.3952 20.6734 19.306 20.438L19.4004 20.414C19.537 19.7657 19.828 19.191 20.2371 18.7958C20.5439 18.5 21.0306 18.5098 21.3242 18.8189C21.6178 19.1279 21.6081 19.6182 21.3012 19.914C21.027 20.1787 20.8507 20.7027 20.8507 21.2498C20.8507 21.8964 21.0747 22.3556 21.2854 22.5696H21.2871ZM20.8366 17.142C20.3482 17.142 19.9523 16.602 19.9523 15.9349C19.9523 15.2679 20.3482 14.7279 20.8366 14.7279C21.3251 14.7279 21.7209 15.2679 21.7209 15.9349C21.7209 16.602 21.3251 17.142 20.8366 17.142Z" fill="#F5F4FB"/>
        </g>
    </g>
    <defs>
        <clipPath id="clip0_574_11929">
            <rect width="27.4678" height="19.7833" fill="white" transform="translate(4.2168 8.16602)"/>
        </clipPath>
    </defs>
</svg>

