<?xml version="1.0" encoding="UTF-8" standalone="no"?>
<svg
   viewBox="79.184998 187.9045 276.85183 59.190736"
   version="1.1"
   id="svg7"
   sodipodi:docname="Plakar_Effortless_Backup.svg"
   width="276.85184"
   height="59.190735"
   inkscape:version="1.4 (e7c3feb1, 2024-10-09)"
   inkscape:export-filename="Transparent Logo White.png"
   inkscape:export-xdpi="96"
   inkscape:export-ydpi="96"
   xmlns:inkscape="http://www.inkscape.org/namespaces/inkscape"
   xmlns:sodipodi="http://sodipodi.sourceforge.net/DTD/sodipodi-0.dtd"
   xmlns="http://www.w3.org/2000/svg"
   xmlns:svg="http://www.w3.org/2000/svg">
  <defs
     id="defs7" />
  <sodipodi:namedview
     id="namedview7"
     pagecolor="#ffffff"
     bordercolor="#000000"
     borderopacity="0.25"
     inkscape:showpageshadow="2"
     inkscape:pageopacity="0.0"
     inkscape:pagecheckerboard="0"
     inkscape:deskcolor="#d1d1d1"
     inkscape:zoom="2.9535112"
     inkscape:cx="100.72757"
     inkscape:cy="-4.2322507"
     inkscape:window-width="1512"
     inkscape:window-height="836"
     inkscape:window-x="0"
     inkscape:window-y="38"
     inkscape:window-maximized="1"
     inkscape:current-layer="svg7" />
  <svg
     y="266.6275"
     viewBox="2.7 10.43 144.76201 25.239998"
     x="252.26501"
     height="25.239998"
     width="144.76201"
     style="overflow:visible"
     version="1.1"
     id="svg6"
     transform="translate(179.56501,186.19749)">
    <g
       fill="#ffffff"
       fill-opacity="1"
       id="g6" />
  </svg>
  <text
     xml:space="preserve"
     style="font-style:normal;font-variant:normal;font-weight:bold;font-stretch:normal;font-size:64px;font-family:Roboto;-inkscape-font-specification:'Roboto, Bold';font-variant-ligatures:normal;font-variant-caps:normal;font-variant-numeric:normal;font-variant-east-asian:normal;text-align:start;writing-mode:lr-tb;direction:ltr;text-anchor:start;fill:#ffffff"
     x="172.38058"
     y="244.5334"
     id="text7"><tspan
       sodipodi:role="line"
       id="tspan7"
       x="172.38058"
       y="244.5334"
       style="font-style:normal;font-variant:normal;font-weight:bold;font-stretch:normal;font-size:64px;font-family:Roboto;-inkscape-font-specification:'Roboto, Bold';font-variant-ligatures:normal;font-variant-caps:normal;font-variant-numeric:normal;font-variant-east-asian:normal;fill:#ffffff">Plakar</tspan></text>
  <svg
     id="_8888_2"
     viewBox="0 0.0012490749 125.2 85.918755"
     height="59.190735"
     width="86.252197"
     y="257.90451"
     x="149.185"
     preserveAspectRatio="xMinYMin"
     style="display:inline;overflow:visible"
     version="1.1">
    <path
       id="_8888_1-2"
       class="cls-1"
       d="m -29.33902,-55.649027 h -35.16 c -1.21,0 -2.31,-0.73 -2.77,-1.85 -0.46,-1.12 -0.21,-2.41 0.65,-3.27 l 2.94,-2.94 c 0.18,-0.18 0.35,-0.38 0.52,-0.58 v 0 c 0,0 0,0 0,0 0.16,-0.2 0.3,-0.4 0.44,-0.61 0,0 0,0 0,0 0.05,-0.08 0.09,-0.15 0.14,-0.23 0,0 0,0 0,0 0.2,-0.35 0.37,-0.71 0.51,-1.08 0,0 0,0 0,0 0.04,-0.1 0.08,-0.2 0.11,-0.3 0.04,-0.12 0.07,-0.24 0.1,-0.36 0,0 0,0 0,0 0,0 0,0 0,0 0.07,-0.27 0.12,-0.54 0.16,-0.82 v 0 c 0,0 0,0 0,0 0.02,-0.14 0.03,-0.27 0.04,-0.41 0,-0.08 0,-0.17 0.01,-0.25 v 0 c 0,-0.09 0.01,-0.19 0.01,-0.28 0,-0.03 0,-0.07 0,-0.1 v 0 c 0,-0.11 0,-0.22 -0.02,-0.33 v 0 c 0,-0.16 -0.02,-0.32 -0.05,-0.48 v 0 c -0.01,-0.09 -0.02,-0.17 -0.04,-0.25 -0.03,-0.19 -0.07,-0.37 -0.12,-0.55 v 0 c 0,0 0,-0.03 -0.01,-0.05 -0.06,-0.25 -0.14,-0.49 -0.23,-0.73 0,0 0,0 0,0 0,0 0,0 0,0 -0.07,-0.17 -0.14,-0.34 -0.22,-0.5 0,0 0,0 0,0 0,0 0,0 0,0 -0.05,-0.1 -0.09,-0.21 -0.15,-0.31 0,0 0,0 0,0 -0.07,-0.13 -0.15,-0.25 -0.23,-0.38 0,0 0,0 0,0 -0.05,-0.08 -0.11,-0.17 -0.16,-0.25 0,0 0,0 0,0 -0.08,-0.12 -0.17,-0.23 -0.26,-0.34 0,0 0,0 0,0 -0.07,-0.09 -0.14,-0.17 -0.22,-0.26 0,0 0,0 0,0 -0.08,-0.1 -0.17,-0.19 -0.26,-0.29 0,0 0,0 0,0 -0.02,-0.02 -0.04,-0.05 -0.06,-0.07 -0.07,-0.07 -0.16,-0.14 -0.23,-0.21 0,0 -0.02,-0.01 -0.02,-0.02 -0.08,-0.07 -0.16,-0.15 -0.24,-0.22 0,0 0,0 0,0 -0.09,-0.07 -0.18,-0.14 -0.27,-0.2 -0.02,-0.01 -0.04,-0.03 -0.05,-0.04 0,0 0,0 0,0 -1.35,-0.99 -2.98,-1.43 -4.58,-1.32 -0.02,0 -0.04,0 -0.06,0 -0.37,0.03 -0.74,0.09 -1.1,0.18 -0.05,0.01 -0.09,0.02 -0.14,0.03 -0.35,0.09 -0.69,0.21 -1.02,0.35 -0.05,0.02 -0.1,0.05 -0.16,0.07 -0.33,0.15 -0.65,0.33 -0.96,0.54 -0.04,0.03 -0.07,0.06 -0.11,0.08 -0.32,0.23 -0.63,0.47 -0.91,0.76 l -19.99,19.99 c -1.32,1.32 -2.05,3.07 -2.05,4.94 0,1.87 0.73,3.62 2.05,4.94 l 19.99,19.99 c 2.73,2.72 7.16,2.73 9.88,0 1.32,-1.32 2.05,-3.07 2.05,-4.94 0,-1.87 -0.73,-3.62 -2.05,-4.94 l -2.94,-2.94 c -0.86,-0.86 -1.12,-2.15 -0.65,-3.27 0.46,-1.12 1.56,-1.85 2.77,-1.85 h 35.16 c 3.85,0 6.99,-3.13 6.99,-6.99 0,-3.86 -3.13,-6.99 -6.99,-6.99 z"
       style="fill:#5cc9e6" />
    <path
       id="path1"
       class="cls-3"
       d="m -64.50902,-55.649027 c -1.55,0 -2.9,-1.19 -3,-2.85 -0.05,-0.87 0.32,-1.71 0.94,-2.33 l 2.88,-2.88 c 0.18,-0.18 0.35,-0.38 0.52,-0.58 0,0 0,0 0,0 0.16,-0.2 0.3,-0.4 0.44,-0.61 0,0 0,0 0,0 0.05,-0.08 0.09,-0.15 0.14,-0.23 0,0 0,0 0,0 0.2,-0.35 0.37,-0.71 0.51,-1.08 0,0 0,0 0,0 0.04,-0.1 0.08,-0.2 0.11,-0.3 0.04,-0.12 0.07,-0.24 0.1,-0.36 0,0 0,0 0,0 0,0 0,0 0,0 0.07,-0.27 0.12,-0.54 0.16,-0.82 v 0 c 0,0 0,0 0,0 0.02,-0.14 0.03,-0.27 0.04,-0.41 0,-0.08 0,-0.17 0.01,-0.25 v 0 c 0,-0.09 0.01,-0.19 0.01,-0.28 0,-0.03 0,-0.07 0,-0.1 0,-0.11 0,-0.22 -0.02,-0.33 0,-0.16 -0.02,-0.32 -0.05,-0.48 v 0 c -0.01,-0.09 -0.02,-0.17 -0.04,-0.25 -0.03,-0.19 -0.07,-0.37 -0.12,-0.55 v 0 c 0,0 0,-0.03 -0.01,-0.05 -0.06,-0.25 -0.14,-0.49 -0.23,-0.73 0,0 0,0 0,0 0,0 0,0 0,0 -0.07,-0.17 -0.14,-0.34 -0.22,-0.5 0,0 0,0 0,0 0,0 0,0 0,0 -0.05,-0.1 -0.09,-0.21 -0.15,-0.31 0,0 0,0 0,0 -0.07,-0.13 -0.15,-0.25 -0.23,-0.38 0,0 0,0 0,0 -0.05,-0.08 -0.11,-0.17 -0.16,-0.25 0,0 0,0 0,0 -0.08,-0.12 -0.17,-0.23 -0.26,-0.34 0,0 0,0 0,0 -0.07,-0.09 -0.14,-0.17 -0.22,-0.26 0,0 0,0 0,0 -0.08,-0.1 -0.17,-0.19 -0.26,-0.29 0,0 0,0 0,0 -0.02,-0.02 -0.04,-0.05 -0.06,-0.07 -0.07,-0.07 -0.16,-0.14 -0.23,-0.21 0,0 -0.02,-0.01 -0.02,-0.02 -0.08,-0.07 -0.16,-0.15 -0.24,-0.22 0,0 0,0 0,0 -0.09,-0.07 -0.18,-0.14 -0.27,-0.2 -0.02,-0.01 -0.04,-0.03 -0.05,-0.04 0,0 0,0 0,0 -1.35,-0.99 -2.98,-1.43 -4.58,-1.32 -0.02,0 -0.04,0 -0.06,0 -0.37,0.03 -0.74,0.09 -1.1,0.18 -0.05,0.01 -0.09,0.02 -0.14,0.03 -0.35,0.09 -0.69,0.21 -1.02,0.35 -0.05,0.02 -0.1,0.05 -0.16,0.07 -0.33,0.15 -0.65,0.33 -0.96,0.54 -0.04,0.03 -0.07,0.06 -0.11,0.08 -0.32,0.23 -0.63,0.47 -0.91,0.76 v 0 c -6.62,6.62 -1.93,17.95 7.43,17.95 h 1.63 z"
       style="fill:#2b9ac1" />
    <path
       id="path2"
       class="cls-4"
       d="m 17.61098,-68.629027 c 0,1.87 -0.73,3.62 -2.05,4.94 l -12.2499994,12.25 -7.75,7.75 c -1.32,1.32 -3.08,2.05 -4.94,2.05 -1.8600006,0 -3.6200006,-0.73 -4.9400006,-2.05 -1.32,-1.32 -2.05,-3.08 -2.05,-4.94 0,-1.86 0.73,-3.62 2.05,-4.94 l 2.94,-2.94 c 0.86,-0.86 1.11,-2.15 0.65,-3.27 -0.46,-1.12 -1.56,-1.85 -2.77,-1.85 h -35.16 c -3.85,0 -6.99,-3.13 -6.99,-6.99 0,-3.86 3.13,-6.99 6.99,-6.99 h 35.16 c 1.21,0 2.31,-0.73 2.77,-1.85 0.46,-1.12 0.21,-2.41 -0.65,-3.27 l -2.94,-2.94 c -1.32,-1.32 -2.05,-3.08 -2.05,-4.94 0,-1.86 0.73,-3.62 2.05,-4.94 1.32,-1.32 3.08,-2.05 4.9400006,-2.05 1.86,0 3.62,0.73 4.94,2.05 l 7.75,7.75 12.2499994,12.25 c 1.32,1.32 2.05,3.08 2.05,4.94 z"
       style="fill:#67db90" />
    <path
       id="path3"
       class="cls-2"
       d="m -13.48902,-61.649027 c 1.55,0 2.9,1.19 3,2.85 0.05,0.87 -0.32,1.71 -0.94,2.33 l -2.88,2.88 c -0.18,0.18 -0.35,0.38 -0.52,0.58 0,0 0,0 0,0 -0.16,0.2 -0.3,0.4 -0.44,0.61 0,0 0,0 0,0 -0.05,0.08 -0.09,0.15 -0.14,0.23 0,0 0,0 0,0 -0.2,0.35 -0.37,0.71 -0.51,1.08 0,0 0,0 0,0 -0.04,0.1 -0.08,0.2 -0.11,0.3 -0.04,0.12 -0.07,0.24 -0.1,0.36 0,0 0,0 0,0 0,0 0,0 0,0 -0.07,0.27 -0.12,0.54 -0.16,0.82 v 0 c 0,0 0,0 0,0 -0.02,0.14 -0.03,0.27 -0.04,0.41 0,0.08 0,0.17 -0.01,0.25 v 0 c 0,0.09 -0.01,0.19 -0.01,0.28 0,0.03 0,0.07 0,0.1 0,0.11 0,0.22 0.02,0.33 0,0.16 0.02,0.32 0.05,0.48 v 0 c 0.01,0.09 0.02,0.17 0.04,0.25 0.03,0.19 0.07,0.37 0.12,0.55 v 0 c 0,0 0,0.03 0.01,0.05 0.06,0.25 0.14,0.49 0.23,0.73 0,0 0,0 0,0 0,0 0,0 0,0 0.07,0.17 0.14,0.34 0.22,0.5 0,0 0,0 0,0 0,0 0,0 0,0 0.05,0.1 0.09,0.21 0.15,0.31 0,0 0,0 0,0 0.07,0.13 0.15,0.25 0.23,0.38 0,0 0,0 0,0 0.05,0.08 0.11,0.17 0.16,0.25 0,0 0,0 0,0 0.08,0.12 0.17,0.23 0.26,0.34 0,0 0,0 0,0 0.07,0.09 0.14,0.17 0.22,0.26 0,0 0,0 0,0 0.08,0.1 0.17,0.19 0.26,0.29 0,0 0,0 0,0 0.02,0.02 0.04,0.05 0.06,0.07 0.07,0.07 0.16,0.14 0.23,0.21 0,0 0.02,0.01 0.02,0.02 0.08,0.07 0.16,0.15 0.24,0.22 0,0 0,0 0,0 0.09,0.07 0.18,0.14 0.27,0.2 0.02,0.01 0.04,0.03 0.05,0.04 0,0 0,0 0,0 1.35,0.99 2.98,1.43 4.5800006,1.32 0.02,0 0.04,0 0.06,0 0.37,-0.03 0.74,-0.09 1.1,-0.18 0.05,-0.01 0.09,-0.02 0.14,-0.03 0.35,-0.09 0.69,-0.21 1.02,-0.35 0.05,-0.02 0.1,-0.05 0.16,-0.07 0.33,-0.15 0.65,-0.33 0.96,-0.54 0.04,-0.03 0.07,-0.06 0.11,-0.08 0.32,-0.23 0.63,-0.47 0.91,-0.76 v 0 c 6.62,-6.62 1.93,-17.95 -7.4300006,-17.95 h -1.63 z"
       style="fill:#2abc84" />
    <path
       id="path4"
       class="cls-5"
       d="m 19.81098,-77.819027 -19.99999943,-19.99 c -5.05999997,-5.060003 -13.30000057,-5.070003 -18.37000057,0 -2.45,2.45 -3.8,5.71 -3.8,9.18 0,2.52 0.71,4.93 2.05,7.01 h -28.34 c -4.01,0 -7.61,1.83 -9.99,4.7 -0.09,-0.1 -0.16,-0.21 -0.25,-0.31 -0.11,-0.13 -0.22,-0.25 -0.34,-0.37 -0.07,-0.08 -0.14,-0.16 -0.21,-0.23 -0.16,-0.16 -0.33,-0.3 -0.49,-0.45 -0.12,-0.11 -0.24,-0.22 -0.37,-0.33 -0.25,-0.21 -0.51,-0.4 -0.78,-0.59 -0.55,-0.4 -1.12,-0.77 -1.74,-1.09 -3.67,-1.91 -8.09,-1.79 -11.76,0.11 -0.13,0.06 -0.25,0.14 -0.37,0.21 -0.21,0.12 -0.41,0.24 -0.62,0.36 -0.15,0.09 -0.3,0.19 -0.44,0.29 -0.19,0.13 -0.37,0.26 -0.55,0.4 -0.13,0.1 -0.26,0.2 -0.39,0.31 -0.27,0.23 -0.54,0.47 -0.8,0.72 -0.02,0.02 -0.05,0.04 -0.07,0.06 l -19.99,19.99 c -2.44999,2.45 -3.79999,5.71 -3.79999,9.18 0,3.47 1.35,6.73 3.79999,9.18 l 19.99,19.99 c 2.53,2.53 5.86,3.8 9.18,3.8 3.32,0 6.65,-1.27 9.18,-3.8 2.53,-2.53 3.8,-5.71 3.8,-9.18 0,-2.52 -0.71,-4.93 -2.05,-7.01 h 28.34 c 4.01,0 7.61,-1.83 9.99,-4.7 0.08,0.1 0.16,0.2 0.25,0.3 0.11,0.13 0.23,0.26 0.35,0.39 0.07,0.07 0.13,0.15 0.2,0.23 0.15,0.15 0.32,0.29 0.48,0.43 0.13,0.12 0.25,0.24 0.39,0.35 0.24,0.2 0.49,0.39 0.75,0.57 0.56,0.41 1.14,0.79 1.76,1.11 1.78,0.93 3.74,1.38 5.7100006,1.38 2.07,0 4.13,-0.5 6.01,-1.47 1.18,-0.6 2.29,-1.39 3.27999997,-2.38 l 19.98999943,-19.99 c 2.45,-2.45 3.8,-5.71 3.8,-9.18 0,-3.47 -1.35,-6.73 -3.8,-9.18 z m -93.38,4.22 c 2.46,-2.47 6.32,-2.69 9.05,-0.7 0.11,0.08 0.23,0.16 0.33,0.25 0.08,0.07 0.16,0.15 0.24,0.22 0.11,0.1 0.22,0.2 0.33,0.31 0.09,0.09 0.17,0.19 0.26,0.29 0.08,0.09 0.15,0.18 0.23,0.27 0.09,0.11 0.17,0.23 0.26,0.34 0.06,0.08 0.11,0.17 0.17,0.26 0.08,0.12 0.16,0.25 0.23,0.38 0.06,0.1 0.1,0.21 0.15,0.31 0.08,0.17 0.15,0.33 0.22,0.5 0.07,0.18 0.13,0.35 0.18,0.54 0.02,0.08 0.04,0.16 0.06,0.24 0.04,0.18 0.08,0.35 0.11,0.53 0.02,0.09 0.03,0.18 0.04,0.27 0.02,0.16 0.03,0.32 0.05,0.48 0,0.11 0.01,0.22 0.02,0.33 0,0.13 0,0.26 0,0.38 0,0.13 0,0.27 -0.02,0.4 0,0.09 -0.02,0.17 -0.04,0.26 -0.04,0.28 -0.09,0.55 -0.16,0.82 -0.03,0.11 -0.05,0.22 -0.08,0.32 -0.04,0.12 -0.08,0.23 -0.12,0.35 -0.05,0.13 -0.09,0.25 -0.15,0.37 -0.04,0.1 -0.09,0.2 -0.14,0.29 -0.07,0.14 -0.14,0.28 -0.22,0.42 -0.05,0.08 -0.09,0.16 -0.14,0.23 -0.1,0.16 -0.22,0.32 -0.34,0.48 -0.04,0.05 -0.07,0.1 -0.11,0.14 -0.17,0.21 -0.34,0.41 -0.53,0.6 -1.31,1.3 -3.04,2.03 -4.88,2.05 -0.05,0 -0.1,0 -0.15,0 -1.84,-0.02 -3.56,-0.75 -4.86,-2.04 -2.72,-2.72 -2.72,-7.16 0.02,-9.9 z m 51.21,24.96 c -0.02,3.84 -3.14,6.96 -6.99,6.96 h -35.16 c -1.21,0 -2.31,0.73 -2.77,1.85 -0.46,1.12 -0.21,2.41 0.65,3.27 l 2.94,2.94 c 1.32,1.32 2.05,3.08 2.05,4.94 0,1.86 -0.73,3.62 -2.05,4.94 -2.73,2.73 -7.16,2.73 -9.88,0 l -19.99,-19.99 c -1.32,-1.32 -2.05,-3.07 -2.05,-4.94 0,-1.87 0.73,-3.62 2.05,-4.94 l 12.25,-12.25 c 0.51,2.34 1.67,4.58 3.49,6.4 2.36,2.36 5.48,3.7 8.81,3.79 0.08,0 0.17,0.01 0.25,0.01 h 0.13 c 0.07,0 0.15,0 0.22,-0.01 h 3.77 c 0,0 0.09,0.01 0.14,0.01 h 35.16 c 3.85,0 6.98,3.13 6.99,6.97 0,0.01 0,0.02 0,0.03 0,0 0,0 0,0.01 z m 17.9300006,4.93 c -0.24,0.24 -0.49,0.45 -0.76,0.65 -0.06,0.05 -0.12,0.09 -0.19,0.14 -0.24,0.17 -0.49,0.32 -0.75,0.46 -0.13,0.07 -0.27,0.13 -0.4,0.19 -0.1,0.05 -0.2,0.09 -0.31,0.13 -0.8,0.31 -1.66,0.48 -2.54,0.48 -1.5000006,0 -2.9300006,-0.48 -4.1200006,-1.35 -0.11,-0.08 -0.22,-0.16 -0.32,-0.24 -0.09,-0.08 -0.18,-0.16 -0.27,-0.24 -0.1,-0.09 -0.2,-0.18 -0.29,-0.27 -0.1,-0.1 -0.19,-0.21 -0.29,-0.32 -0.07,-0.08 -0.14,-0.16 -0.2,-0.24 -0.09,-0.12 -0.18,-0.24 -0.27,-0.36 -0.05,-0.08 -0.1,-0.16 -0.15,-0.24 -0.08,-0.13 -0.16,-0.26 -0.24,-0.4 -0.05,-0.09 -0.09,-0.19 -0.14,-0.29 -0.08,-0.17 -0.16,-0.35 -0.23,-0.53 -0.07,-0.17 -0.13,-0.35 -0.18,-0.53 -0.02,-0.08 -0.04,-0.16 -0.06,-0.25 -0.04,-0.18 -0.08,-0.35 -0.11,-0.53 -0.02,-0.09 -0.03,-0.18 -0.04,-0.27 -0.02,-0.16 -0.04,-0.32 -0.05,-0.48 0,-0.11 -0.01,-0.22 -0.02,-0.33 0,-0.13 0,-0.26 0,-0.39 0,-0.13 0,-0.26 0.02,-0.39 0,-0.1 0.03,-0.19 0.04,-0.29 0.04,-0.26 0.09,-0.52 0.15,-0.77 0.03,-0.11 0.06,-0.23 0.09,-0.34 0.04,-0.11 0.08,-0.22 0.12,-0.34 0.05,-0.13 0.1,-0.26 0.15,-0.38 0.04,-0.1 0.09,-0.19 0.14,-0.29 0.07,-0.14 0.15,-0.28 0.23,-0.42 0.05,-0.08 0.09,-0.16 0.14,-0.23 0.1,-0.16 0.21,-0.32 0.33,-0.47 0.04,-0.05 0.07,-0.1 0.12,-0.16 0.16,-0.2 0.34,-0.4 0.52,-0.59 l 0.02,-0.02 c 1.3,-1.3 3.03,-2.02 4.8700006,-2.04 0.05,0 0.1,0 0.15,0 1.84,0.02 3.56,0.75 4.86,2.04 2.72,2.72 2.72,7.16 -0.02,9.9 z m 19.9999994,-19.99 -12.2499994,12.25 c -0.51,-2.34 -1.67,-4.58 -3.49000003,-6.4 -2.35999997,-2.36 -5.47999997,-3.7 -8.80999997,-3.79 -0.08,0 -0.17,-0.01 -0.25,-0.01 h -0.13 c 0,0 0,0 -0.01,0 v 0 c 0,0 -4.1300006,0 -4.1300006,0 h -35.16 c -3.85,0 -6.99,-3.13 -6.99,-6.99 0,0 0,-0.01 0,-0.02 0,0 0,0 0,0 0.01,-3.84 3.14,-6.97 6.99,-6.97 h 35.16 c 1.21,0 2.31,-0.73 2.77,-1.85 0.46,-1.12 0.21,-2.41 -0.65,-3.27 l -2.94,-2.94 c -1.32,-1.32 -2.05,-3.08 -2.05,-4.94 0,-1.86 0.73,-3.62 2.05,-4.94 1.32,-1.32 3.08,-2.05 4.9400006,-2.05 1.86,0 3.62,0.73 4.94,2.05 l 19.9899994,19.99 c 1.32,1.32 2.05,3.08 2.05,4.94 0,1.86 -0.73,3.62 -2.05,4.94 z"
       style="display:inline;fill:#06061d" />
  </svg>
</svg>
