<svg width="176" height="37" viewBox="0 0 1550 344" fill="none" xmlns="http://www.w3.org/2000/svg" >

    <g clip-path="url(#clip0_3277_429)">
        <path d="M288.618 183.772H148.203C143.37 183.772 138.977 180.856 137.14 176.384C135.303 171.911 136.302 166.759 139.736 163.325L151.477 151.583C152.196 150.864 152.875 150.066 153.554 149.267C154.193 148.468 154.752 147.67 155.311 146.831C155.511 146.511 155.671 146.232 155.87 145.912C156.669 144.515 157.348 143.077 157.907 141.599C158.067 141.2 158.227 140.801 158.346 140.401C158.506 139.922 158.626 139.443 158.746 138.964C159.025 137.885 159.225 136.807 159.385 135.689C159.465 135.13 159.505 134.61 159.544 134.051C159.544 133.732 159.544 133.372 159.584 133.053C159.584 132.694 159.624 132.294 159.624 131.935C159.624 131.815 159.624 131.655 159.624 131.535C159.624 131.096 159.624 130.657 159.544 130.218C159.544 129.579 159.465 128.94 159.345 128.301C159.305 127.941 159.265 127.622 159.185 127.302C159.065 126.543 158.906 125.825 158.706 125.106C158.706 125.106 158.706 124.986 158.666 124.906C158.426 123.908 158.107 122.949 157.747 121.991C157.468 121.312 157.188 120.633 156.869 119.994C156.669 119.595 156.509 119.155 156.27 118.756C155.99 118.237 155.671 117.757 155.351 117.238C155.152 116.919 154.912 116.559 154.712 116.24C154.393 115.761 154.033 115.321 153.674 114.882C153.394 114.523 153.115 114.203 152.795 113.844C152.476 113.444 152.116 113.085 151.757 112.686C151.677 112.606 151.597 112.486 151.517 112.406C151.238 112.126 150.878 111.847 150.599 111.567C150.599 111.567 150.519 111.527 150.519 111.488C150.199 111.208 149.88 110.888 149.56 110.609C149.201 110.329 148.842 110.05 148.482 109.81C148.402 109.77 148.322 109.69 148.283 109.65C142.891 105.697 136.382 103.94 129.992 104.379C129.912 104.379 129.832 104.379 129.752 104.379C128.275 104.499 126.797 104.738 125.359 105.098C125.16 105.138 125 105.178 124.8 105.218C123.402 105.577 122.045 106.056 120.727 106.615C120.527 106.695 120.327 106.815 120.088 106.895C118.77 107.494 117.492 108.213 116.254 109.051C116.094 109.171 115.974 109.291 115.814 109.371C114.537 110.289 113.299 111.248 112.18 112.406L32.348 192.238C27.0765 197.51 24.1611 204.499 24.1611 211.967C24.1611 219.435 27.0765 226.424 32.348 231.695L112.18 311.527C123.083 322.39 140.775 322.43 151.637 311.527C156.909 306.256 159.824 299.267 159.824 291.799C159.824 284.331 156.909 277.342 151.637 272.071L139.896 260.329C136.461 256.895 135.423 251.743 137.3 247.27C139.137 242.797 143.53 239.882 148.362 239.882H288.778C304.153 239.882 316.693 227.382 316.693 211.967C316.693 196.551 304.193 184.051 288.778 184.051L288.618 183.772Z" fill="#5CC9E6"/>
        <path d="M148.163 183.772C141.973 183.772 136.581 179.019 136.182 172.39C135.982 168.916 137.46 165.561 139.936 163.085L151.438 151.583C152.156 150.865 152.835 150.066 153.514 149.267C154.153 148.468 154.712 147.67 155.271 146.831C155.471 146.511 155.631 146.232 155.831 145.912C156.629 144.515 157.308 143.077 157.867 141.599C158.027 141.2 158.187 140.801 158.307 140.401C158.466 139.922 158.586 139.443 158.706 138.964C158.986 137.885 159.185 136.807 159.345 135.689C159.425 135.13 159.465 134.611 159.505 134.051C159.505 133.732 159.505 133.372 159.545 133.053C159.545 132.694 159.585 132.294 159.585 131.935C159.585 131.815 159.585 131.655 159.585 131.535C159.585 131.096 159.585 130.657 159.505 130.218C159.505 129.579 159.425 128.94 159.305 128.301C159.265 127.941 159.225 127.622 159.145 127.302C159.025 126.543 158.866 125.825 158.666 125.106C158.666 125.106 158.666 124.986 158.626 124.906C158.386 123.908 158.067 122.949 157.708 121.991C157.428 121.312 157.148 120.633 156.829 119.994C156.629 119.595 156.47 119.155 156.23 118.756C155.95 118.237 155.631 117.757 155.311 117.238C155.112 116.919 154.872 116.559 154.672 116.24C154.353 115.761 153.993 115.321 153.634 114.882C153.355 114.523 153.075 114.203 152.755 113.844C152.436 113.444 152.077 113.085 151.717 112.686C151.637 112.606 151.557 112.486 151.478 112.406C151.198 112.126 150.839 111.847 150.559 111.567C150.559 111.567 150.479 111.527 150.479 111.488C150.16 111.208 149.84 110.888 149.521 110.609C149.161 110.329 148.802 110.05 148.442 109.81C148.362 109.77 148.283 109.69 148.243 109.65C142.851 105.697 136.342 103.94 129.952 104.379C129.872 104.379 129.792 104.379 129.712 104.379C128.235 104.499 126.757 104.738 125.319 105.098C125.12 105.138 124.96 105.178 124.76 105.218C123.362 105.577 122.005 106.056 120.687 106.615C120.487 106.695 120.287 106.815 120.048 106.895C118.73 107.494 117.452 108.213 116.214 109.051C116.054 109.171 115.934 109.291 115.775 109.371C114.497 110.289 113.259 111.248 112.14 112.406C85.7028 138.844 104.433 184.091 141.813 184.091H148.323L148.163 183.772Z" fill="#2B9AC1"/>
        <path d="M476.118 131.935C476.118 139.403 473.203 146.392 467.931 151.663L419.01 200.585L388.059 231.535C382.788 236.807 375.759 239.722 368.331 239.722C360.903 239.722 353.874 236.807 348.602 231.535C343.331 226.264 340.415 219.235 340.415 211.807C340.415 204.379 343.331 197.35 348.602 192.078L360.343 180.337C363.778 176.903 364.776 171.751 362.939 167.278C361.102 162.805 356.709 159.89 351.877 159.89H211.462C196.086 159.89 183.546 147.39 183.546 131.975C183.546 116.559 196.046 104.059 211.462 104.059H351.877C356.709 104.059 361.102 101.144 362.939 96.6711C364.776 92.1983 363.778 87.0465 360.343 83.612L348.602 71.8708C343.331 66.5992 340.415 59.5705 340.415 52.1424C340.415 44.7143 343.331 37.6855 348.602 32.414C353.874 27.1424 360.903 24.2271 368.331 24.2271C375.759 24.2271 382.788 27.1424 388.059 32.414L419.01 63.3644L467.931 112.286C473.203 117.558 476.118 124.586 476.118 132.015V131.935Z" fill="#67DB90"/>
        <path d="M351.917 159.81C358.107 159.81 363.498 164.563 363.898 171.192C364.097 174.666 362.62 178.021 360.144 180.497L348.642 191.999C347.923 192.718 347.244 193.516 346.565 194.315C345.926 195.114 345.367 195.912 344.808 196.751C344.609 197.071 344.449 197.35 344.249 197.67C343.45 199.067 342.771 200.505 342.212 201.983C342.053 202.382 341.893 202.781 341.773 203.181C341.613 203.66 341.494 204.139 341.374 204.619C341.094 205.697 340.894 206.775 340.735 207.893C340.655 208.452 340.615 208.972 340.575 209.531C340.575 209.85 340.575 210.21 340.535 210.529C340.535 210.888 340.495 211.288 340.495 211.647C340.495 211.767 340.495 211.927 340.495 212.047C340.495 212.486 340.495 212.925 340.575 213.365C340.575 214.003 340.655 214.642 340.775 215.281C340.815 215.641 340.855 215.96 340.934 216.28C341.054 217.039 341.214 217.757 341.414 218.476C341.414 218.476 341.414 218.596 341.454 218.676C341.693 219.674 342.013 220.633 342.372 221.591C342.652 222.27 342.931 222.949 343.251 223.588C343.45 223.988 343.61 224.427 343.85 224.826C344.129 225.345 344.449 225.825 344.768 226.344C344.968 226.663 345.208 227.023 345.407 227.342C345.727 227.821 346.086 228.261 346.446 228.7C346.725 229.059 347.005 229.379 347.324 229.738C347.644 230.138 348.003 230.497 348.363 230.896C348.442 230.976 348.522 231.096 348.602 231.176C348.882 231.456 349.241 231.735 349.521 232.015C349.521 232.015 349.601 232.055 349.601 232.095C349.92 232.374 350.24 232.694 350.559 232.973C350.918 233.253 351.278 233.532 351.637 233.772C351.717 233.812 351.797 233.892 351.837 233.932C357.228 237.885 363.738 239.642 370.128 239.203C370.208 239.203 370.287 239.203 370.367 239.203C371.845 239.083 373.323 238.844 374.76 238.484C374.96 238.444 375.12 238.404 375.319 238.365C376.717 238.005 378.075 237.526 379.393 236.967C379.593 236.887 379.792 236.767 380.032 236.687C381.35 236.088 382.628 235.369 383.866 234.531C384.025 234.411 384.145 234.291 384.305 234.211C385.583 233.293 386.821 232.334 387.939 231.176C414.377 204.738 395.647 159.491 358.267 159.491H351.757L351.917 159.81Z" fill="#2ABC84"/>
        <path d="M484.904 95.2335L405.032 15.4012C384.824 -4.80647 351.917 -4.8464 331.669 15.4012C321.885 25.1855 316.494 38.2047 316.494 52.0625C316.494 62.1264 319.329 71.751 324.681 80.0577H211.502C195.487 80.0577 181.11 87.366 171.605 98.8277C171.246 98.4283 170.966 97.989 170.607 97.5897C170.168 97.0705 169.728 96.5913 169.249 96.112C168.97 95.7926 168.69 95.4731 168.411 95.1935C167.772 94.5545 167.093 93.9954 166.454 93.3964C165.974 92.9571 165.495 92.5178 164.976 92.0785C163.978 91.2398 162.939 90.481 161.861 89.7223C159.665 88.1248 157.388 86.6472 154.912 85.3692C140.256 77.7414 122.604 78.2207 107.947 85.8085C107.428 86.0481 106.949 86.3676 106.47 86.6472C105.631 87.1264 104.832 87.6057 103.994 88.0849C103.395 88.4443 102.796 88.8437 102.236 89.243C101.478 89.7622 100.759 90.2814 100.04 90.8405C99.5208 91.2398 99.0016 91.6392 98.4824 92.0785C97.4041 92.997 96.3259 93.9555 95.2875 94.9539C95.2077 95.0338 95.0879 95.1136 95.008 95.1935L15.1757 175.026C5.39137 184.81 0 197.829 0 211.687C0 225.545 5.39137 238.564 15.1757 248.348L95.008 328.181C105.112 338.285 118.411 343.356 131.669 343.356C144.928 343.356 158.227 338.285 168.331 328.181C178.434 318.077 183.506 305.377 183.506 291.519C183.506 281.455 180.671 271.831 175.319 263.524H288.498C304.513 263.524 318.89 256.216 328.395 244.754C328.714 245.154 329.034 245.553 329.393 245.952C329.832 246.471 330.311 246.991 330.791 247.51C331.07 247.789 331.31 248.109 331.589 248.428C332.188 249.027 332.867 249.586 333.506 250.146C334.026 250.625 334.505 251.104 335.064 251.543C336.022 252.342 337.021 253.101 338.059 253.82C340.296 255.457 342.612 256.975 345.088 258.253C352.196 261.967 360.024 263.764 367.891 263.764C376.158 263.764 384.385 261.767 391.893 257.893C396.605 255.497 401.038 252.342 404.992 248.388L484.824 168.556C494.609 158.772 500 145.753 500 131.895C500 118.037 494.609 105.018 484.824 95.2335H484.904ZM111.981 112.086C121.805 102.222 137.22 101.344 148.123 109.291C148.562 109.61 149.042 109.93 149.441 110.289C149.76 110.569 150.08 110.888 150.399 111.168C150.839 111.567 151.278 111.967 151.717 112.406C152.077 112.765 152.396 113.165 152.756 113.564C153.075 113.924 153.355 114.283 153.674 114.642C154.034 115.082 154.353 115.561 154.712 116C154.952 116.32 155.152 116.679 155.391 117.039C155.711 117.518 156.03 118.037 156.31 118.556C156.549 118.955 156.709 119.395 156.909 119.794C157.228 120.473 157.508 121.112 157.788 121.791C158.067 122.51 158.307 123.189 158.506 123.947C158.586 124.267 158.666 124.586 158.746 124.906C158.906 125.625 159.065 126.304 159.185 127.023C159.265 127.382 159.305 127.741 159.345 128.101C159.425 128.74 159.465 129.379 159.545 130.018C159.545 130.457 159.585 130.896 159.625 131.336C159.625 131.855 159.625 132.374 159.625 132.853C159.625 133.372 159.625 133.932 159.545 134.451C159.545 134.81 159.465 135.13 159.385 135.489C159.225 136.607 159.026 137.686 158.746 138.764C158.626 139.203 158.546 139.642 158.426 140.042C158.267 140.521 158.107 140.96 157.947 141.44C157.748 141.959 157.588 142.438 157.348 142.917C157.188 143.317 156.989 143.716 156.789 144.075C156.51 144.634 156.23 145.193 155.911 145.753C155.711 146.072 155.551 146.392 155.351 146.671C154.952 147.31 154.473 147.949 153.994 148.588C153.834 148.788 153.714 148.987 153.554 149.147C152.875 149.986 152.196 150.785 151.438 151.543C146.206 156.735 139.297 159.65 131.949 159.73C131.749 159.73 131.55 159.73 131.35 159.73C124.002 159.65 117.133 156.735 111.941 151.583C101.078 140.721 101.078 122.989 112.021 112.047L111.981 112.086ZM316.494 211.767C316.414 227.102 303.954 239.562 288.578 239.562H148.163C143.331 239.562 138.938 242.478 137.101 246.951C135.264 251.424 136.262 256.575 139.696 260.01L151.438 271.751C156.709 277.023 159.625 284.051 159.625 291.479C159.625 298.908 156.709 305.936 151.438 311.208C140.535 322.11 122.843 322.11 111.981 311.208L32.1486 231.376C26.877 226.104 23.9617 219.115 23.9617 211.647C23.9617 204.179 26.877 197.19 32.1486 191.919L81.0703 142.997C83.107 152.342 87.7396 161.288 95.008 168.556C104.433 177.981 116.893 183.332 130.192 183.692C130.511 183.692 130.871 183.732 131.19 183.732H131.709C131.989 183.732 132.308 183.732 132.588 183.692H147.644C147.644 183.692 148.003 183.732 148.203 183.732H288.618C303.994 183.732 316.494 196.232 316.534 211.567C316.534 211.607 316.534 211.647 316.534 211.687C316.534 211.687 316.534 211.687 316.534 211.727L316.494 211.767ZM388.099 231.455C387.141 232.414 386.142 233.253 385.064 234.051C384.824 234.251 384.585 234.411 384.305 234.61C383.347 235.289 382.348 235.888 381.31 236.447C380.791 236.727 380.232 236.967 379.712 237.206C379.313 237.406 378.914 237.566 378.474 237.725C375.28 238.963 371.845 239.642 368.331 239.642C362.34 239.642 356.629 237.725 351.877 234.251C351.438 233.932 350.998 233.612 350.599 233.293C350.24 232.973 349.88 232.654 349.521 232.334C349.121 231.975 348.722 231.615 348.363 231.256C347.963 230.856 347.604 230.417 347.204 229.978C346.925 229.658 346.645 229.339 346.406 229.019C346.046 228.54 345.687 228.061 345.327 227.582C345.128 227.262 344.928 226.943 344.728 226.623C344.409 226.104 344.089 225.585 343.77 225.026C343.57 224.666 343.411 224.267 343.211 223.868C342.891 223.189 342.572 222.47 342.292 221.751C342.013 221.072 341.773 220.353 341.573 219.634C341.494 219.315 341.414 218.995 341.334 218.636C341.174 217.917 341.014 217.238 340.895 216.519C340.815 216.16 340.775 215.801 340.735 215.441C340.655 214.802 340.575 214.163 340.535 213.524C340.535 213.085 340.495 212.646 340.455 212.206C340.455 211.687 340.455 211.168 340.455 210.649C340.455 210.13 340.455 209.61 340.535 209.091C340.535 208.692 340.655 208.332 340.695 207.933C340.855 206.895 341.054 205.856 341.294 204.858C341.414 204.419 341.534 203.94 341.653 203.5C341.813 203.061 341.973 202.622 342.133 202.142C342.332 201.623 342.532 201.104 342.732 200.625C342.891 200.225 343.091 199.866 343.291 199.467C343.57 198.908 343.89 198.348 344.209 197.789C344.409 197.47 344.569 197.15 344.768 196.871C345.168 196.232 345.607 195.593 346.086 194.994C346.246 194.794 346.366 194.594 346.565 194.355C347.204 193.556 347.923 192.757 348.642 191.999L348.722 191.919C353.914 186.727 360.823 183.852 368.171 183.772C368.371 183.772 368.57 183.772 368.77 183.772C376.118 183.852 382.987 186.767 388.179 191.919C399.042 202.781 399.042 220.513 388.099 231.455ZM467.971 151.623L419.049 200.545C417.013 191.2 412.38 182.254 405.112 174.986C395.687 165.561 383.227 160.209 369.928 159.85C369.609 159.85 369.249 159.81 368.93 159.81H368.411C368.411 159.81 368.41 159.81 368.371 159.81H351.877H211.462C196.086 159.81 183.546 147.31 183.546 131.895C183.546 131.895 183.546 131.855 183.546 131.815C183.586 116.479 196.086 103.979 211.462 103.979H351.877C356.709 103.979 361.102 101.064 362.939 96.5913C364.776 92.1184 363.778 86.9667 360.343 83.5322L348.602 71.791C343.331 66.5194 340.415 59.4906 340.415 52.0625C340.415 44.6344 343.331 37.6057 348.602 32.3341C353.874 27.0625 360.903 24.1472 368.331 24.1472C375.759 24.1472 382.788 27.0625 388.059 32.3341L467.891 112.166C473.163 117.438 476.078 124.467 476.078 131.895C476.078 139.323 473.163 146.352 467.891 151.623H467.971Z" fill="#06061D"/>
    </g>
    <path d="M1495.47 147.725V289H1447.38V108.314H1492.63L1495.47 147.725ZM1549.91 107.146L1549.08 151.732C1546.74 151.398 1543.9 151.12 1540.56 150.897C1537.33 150.563 1534.38 150.396 1531.71 150.396C1524.92 150.396 1519.02 151.287 1514.01 153.068C1509.11 154.738 1504.99 157.243 1501.65 160.583C1498.42 163.923 1495.97 167.986 1494.3 172.773C1492.75 177.561 1491.85 183.016 1491.63 189.139L1481.95 186.133C1481.95 174.443 1483.12 163.7 1485.45 153.903C1487.79 143.995 1491.19 135.367 1495.64 128.02C1500.2 120.672 1505.77 114.994 1512.34 110.986C1518.91 106.979 1526.42 104.975 1534.88 104.975C1537.55 104.975 1540.28 105.197 1543.07 105.643C1545.85 105.977 1548.13 106.478 1549.91 107.146Z" fill="white"/>
    <path d="M1361.88 248.254V167.764C1361.88 161.975 1360.93 157.021 1359.04 152.901C1357.15 148.671 1354.2 145.387 1350.19 143.049C1346.29 140.711 1341.23 139.542 1334.99 139.542C1329.65 139.542 1325.03 140.488 1321.13 142.381C1317.24 144.162 1314.23 146.778 1312.12 150.229C1310 153.569 1308.94 157.521 1308.94 162.086H1260.85C1260.85 154.404 1262.63 147.112 1266.19 140.21C1269.75 133.308 1274.93 127.24 1281.72 122.008C1288.51 116.664 1296.58 112.489 1305.94 109.483C1315.4 106.478 1325.98 104.975 1337.67 104.975C1351.69 104.975 1364.16 107.312 1375.07 111.988C1385.98 116.664 1394.55 123.678 1400.79 133.029C1407.13 142.381 1410.31 154.07 1410.31 168.098V245.415C1410.31 255.323 1410.92 263.45 1412.14 269.796C1413.37 276.03 1415.15 281.485 1417.49 286.161V289H1368.89C1366.55 284.102 1364.77 277.979 1363.55 270.631C1362.44 263.172 1361.88 255.713 1361.88 248.254ZM1368.22 178.952L1368.56 206.172H1341.67C1335.33 206.172 1329.82 206.896 1325.14 208.343C1320.46 209.79 1316.62 211.85 1313.62 214.521C1310.61 217.082 1308.39 220.088 1306.94 223.539C1305.6 226.99 1304.93 230.775 1304.93 234.895C1304.93 239.014 1305.88 242.743 1307.77 246.083C1309.67 249.312 1312.39 251.872 1315.96 253.765C1319.52 255.546 1323.69 256.437 1328.48 256.437C1335.72 256.437 1342.01 254.989 1347.35 252.095C1352.69 249.2 1356.81 245.638 1359.71 241.407C1362.71 237.177 1364.27 233.169 1364.38 229.384L1377.08 249.757C1375.29 254.321 1372.84 259.053 1369.73 263.951C1366.72 268.85 1362.88 273.47 1358.21 277.812C1353.53 282.042 1347.91 285.549 1341.34 288.332C1334.77 291.004 1326.98 292.34 1317.96 292.34C1306.49 292.34 1296.08 290.058 1286.73 285.493C1277.49 280.817 1270.14 274.416 1264.69 266.289C1259.35 258.051 1256.67 248.699 1256.67 238.234C1256.67 228.771 1258.46 220.366 1262.02 213.019C1265.58 205.671 1270.81 199.492 1277.71 194.482C1284.73 189.361 1293.47 185.521 1303.93 182.96C1314.4 180.288 1326.53 178.952 1340.34 178.952H1368.22Z" fill="white"/>
    <path d="M1129.76 32.333V289H1081.67V32.333H1129.76ZM1243.65 108.314L1165.16 197.822L1123.08 240.405L1105.55 205.671L1138.94 163.255L1185.87 108.314H1243.65ZM1193.72 289L1140.28 205.504L1173.51 176.447L1249.16 289H1193.72Z" fill="white"/>
    <path d="M996.166 248.254V167.764C996.166 161.975 995.22 157.021 993.327 152.901C991.435 148.671 988.484 145.387 984.477 143.049C980.58 140.711 975.515 139.542 969.28 139.542C963.937 139.542 959.316 140.488 955.42 142.381C951.523 144.162 948.518 146.778 946.402 150.229C944.287 153.569 943.229 157.521 943.229 162.086H895.136C895.136 154.404 896.917 147.112 900.479 140.21C904.042 133.308 909.219 127.24 916.01 122.008C922.801 116.664 930.872 112.489 940.224 109.483C949.687 106.478 960.263 104.975 971.952 104.975C985.979 104.975 998.448 107.312 1009.36 111.988C1020.27 116.664 1028.84 123.678 1035.08 133.029C1041.42 142.381 1044.59 154.07 1044.59 168.098V245.415C1044.59 255.323 1045.21 263.45 1046.43 269.796C1047.66 276.03 1049.44 281.485 1051.77 286.161V289H1003.18C1000.84 284.102 999.061 277.979 997.836 270.631C996.723 263.172 996.166 255.713 996.166 248.254ZM1002.51 178.952L1002.85 206.172H975.96C969.614 206.172 964.104 206.896 959.428 208.343C954.752 209.79 950.911 211.85 947.905 214.521C944.899 217.082 942.673 220.088 941.226 223.539C939.89 226.99 939.222 230.775 939.222 234.895C939.222 239.014 940.168 242.743 942.061 246.083C943.953 249.312 946.681 251.872 950.243 253.765C953.806 255.546 957.98 256.437 962.768 256.437C970.004 256.437 976.294 254.989 981.638 252.095C986.981 249.2 991.101 245.638 993.995 241.407C997.001 237.177 998.56 233.169 998.671 229.384L1011.36 249.757C1009.58 254.321 1007.13 259.053 1004.01 263.951C1001.01 268.85 997.168 273.47 992.492 277.812C987.816 282.042 982.194 285.549 975.626 288.332C969.058 291.004 961.265 292.34 952.247 292.34C940.78 292.34 930.371 290.058 921.02 285.493C911.779 280.817 904.432 274.416 898.977 266.289C893.633 258.051 890.961 248.699 890.961 238.234C890.961 228.771 892.742 220.366 896.305 213.019C899.867 205.671 905.1 199.492 912.002 194.482C919.016 189.361 927.755 185.521 938.22 182.96C948.685 180.288 960.819 178.952 974.624 178.952H1002.51Z" fill="white"/>
    <path d="M858.898 32.5V289H810.638V32.5H858.898Z" fill="white"/>
    <path d="M685.394 202.331H623.439V163.255H685.394C694.968 163.255 702.761 161.696 708.772 158.579C714.784 155.351 719.182 150.897 721.965 145.22C724.748 139.542 726.14 133.141 726.14 126.016C726.14 118.779 724.748 112.044 721.965 105.81C719.182 99.5752 714.784 94.5654 708.772 90.7803C702.761 86.9951 694.968 85.1025 685.394 85.1025H640.807V289H590.709V45.8594H685.394C704.431 45.8594 720.74 49.3105 734.322 56.2129C748.016 63.0039 758.48 72.4111 765.717 84.4346C772.953 96.458 776.571 110.207 776.571 125.682C776.571 141.379 772.953 154.961 765.717 166.428C758.48 177.895 748.016 186.745 734.322 192.979C720.74 199.214 704.431 202.331 685.394 202.331Z" fill="white"/>
    <defs>
        <clipPath id="clip0_3277_429">
            <rect width="500" height="343.126" fill="white" transform="translate(0 0.230469)"/>
        </clipPath>
    </defs>
</svg>