<?xml version="1.0" encoding="UTF-8"?>
<svg id="Calque_1" xmlns="http://www.w3.org/2000/svg" version="1.1" viewBox="0 0 70.87 70.87">
  <!-- Generator: Adobe Illustrator 29.4.0, SVG Export Plug-In . SVG Version: 2.1.0 Build 152)  -->
  <defs>
    <style>
      .st0 {
        fill: #8c3123;
      }

      .st1 {
        fill: #fff;
      }

      .st2 {
        fill: #e05243;
      }
    </style>
  </defs>
  <rect class="st1" width="70.87" height="70.87"/>
  <path class="st0" d="M36.44,12.51l26.5,3.94v2.32c0,3.45-11.87,6.23-26.51,6.23s-26.5-2.78-26.5-6.23v-2.52l26.51-3.74Z"/>
  <path class="st0" d="M36.44,29.25c11.07,0,20.55-1.59,24.52-3.85l1.3-2.2.53-2v2.48l-8.67,37c0,2.3-7.91,4.15-17.67,4.15s-17.66-1.85-17.66-4.15L10.12,23.68v-2.43l2,4.23c3.98,2.22,13.37,3.77,24.32,3.77Z"/>
  <g>
    <path class="st2" d="M36.44,10.03c14.64,0,26.51,2.79,26.51,6.22s-11.88,6.2-26.51,6.2-26.5-2.75-26.5-6.2,11.86-6.22,26.5-6.22Z"/>
    <path class="st2" d="M36.44,26.77c13.65,0,24.88-2.41,26.34-5.53l-8.67,37c0,2.3-7.91,4.15-17.67,4.15s-17.67-1.84-17.67-4.14L10.1,21.25c1.47,3.11,12.7,5.52,26.34,5.52Z"/>
  </g>
</svg>